<svg xmlns="http://www.w3.org/2000/svg" viewBox="0 0 1600 900" width="1600" height="900">
  <!-- Subtle decorative border -->
  <rect x="60" y="40" width="1480" height="820" rx="12" ry="12" fill="none" stroke="#C8A84E" stroke-width="3"/>
  <rect x="72" y="52" width="1456" height="796" rx="8" ry="8" fill="none" stroke="#C8A84E" stroke-width="1" opacity="0.5"/>
  <!-- Top decorative line with diamonds -->
  <line x1="500" y1="200" x2="720" y2="200" stroke="#C8A84E" stroke-width="2"/>
  <polygon points="800,190 810,200 800,210 790,200" fill="#C8A84E"/>
  <line x1="880" y1="200" x2="1100" y2="200" stroke="#C8A84E" stroke-width="2"/>
  <!-- Surf artwork replacing text -->
  <g transform="translate(503.6,240) scale(0.835)">
<path d="M0 0 C2.65988725 2.42859271 3.81833581 4.26021602 4.203125 7.9453125 C4.4249206 18.2588079 0.75178402 26.206977 -6 34 C-6.66 34 -7.32 34 -8 34 C-9.41385911 36.38162009 -9.41385911 36.38162009 -10 39 C-9.4423999 38.86424561 -8.8847998 38.72849121 -8.31030273 38.58862305 C3.08630873 35.82229609 14.47494834 33.17754432 26 31 C26.66 31.99 27.32 32.98 28 34 C28.85980469 33.566875 29.71960938 33.13375 30.60546875 32.6875 C38.78359505 28.83477311 45.77447055 26.43024464 55 28 C57.54103265 29.0830631 58.93888173 30.11554901 61 32 C60.34 32.33 59.68 32.66 59 33 C58.01 32.505 57.02 32.01 56 31.5 C50.16984508 28.90347739 44.7247555 30.02493164 38.8671875 32.12109375 C35.88204419 33.35695775 32.94157369 34.66443401 30 36 C28.33696639 36.6756785 26.67145221 37.345424 25 38 C25 36.35 25 34.7 25 33 C23.97797485 33.2628479 23.97797485 33.2628479 22.93530273 33.53100586 C17.04959175 35.02553352 11.15079988 36.43798148 5.22265625 37.75390625 C4.55696625 37.90193695 3.89127625 38.04996765 3.20541382 38.20248413 C0.45844305 38.81222194 -2.28889366 39.42020025 -5.03735352 40.02319336 C-7.0765357 40.4713417 -9.11449347 40.92474544 -11.15234375 41.37890625 C-12.9465979 41.77444702 -12.9465979 41.77444702 -14.77709961 42.17797852 C-17.69321782 42.92175323 -20.31679348 43.63726075 -23 45 C-24.37189827 48.02982306 -24.37189827 48.02982306 -25 51 C-23.02 51.66 -21.04 52.32 -19 53 C-20.43539789 56.20927782 -21.87369605 59.41724793 -23.3125 62.625 C-23.91868164 63.98044922 -23.91868164 63.98044922 -24.53710938 65.36328125 C-26.60056644 69.95992543 -28.6990385 74.51722063 -31 79 C-32.2557898 75.23263061 -31.55901858 74.41617549 -29.91015625 70.89453125 C-29.45576172 69.91162109 -29.00136719 68.92871094 -28.53320312 67.91601562 C-28.04787109 66.89185547 -27.56253906 65.86769531 -27.0625 64.8125 C-26.58103516 63.77673828 -26.09957031 62.74097656 -25.60351562 61.67382812 C-24.41099818 59.11168669 -23.20955259 56.55413237 -22 54 C-24.90369472 54.30674437 -24.90369472 54.30674437 -28 56 C-29.99094784 58.92191103 -31.24288258 62.10568557 -32.5625 65.375 C-32.94962158 66.28604492 -33.33674316 67.19708984 -33.7355957 68.13574219 C-34.84217924 70.7499093 -35.92192884 73.37398337 -37 76 C-37.48726563 77.13179688 -37.97453125 78.26359375 -38.4765625 79.4296875 C-39.6962248 82.27032033 -40.85642086 85.12792912 -42 88 C-42.25410645 88.62358398 -42.50821289 89.24716797 -42.77001953 89.88964844 C-45.98215857 97.80723953 -48.95825933 105.31794164 -49 114 C-47.1364617 110.48289955 -45.74430932 106.83593595 -44.3125 103.125 C-41.32725993 95.50329123 -37.78000054 88.25804838 -34 81 C-32.61028598 85.16914207 -34.35464816 87.60376562 -36.125 91.375 C-36.77693908 92.8128068 -37.42664905 94.25162625 -38.07421875 95.69140625 C-38.56220947 96.77252686 -38.56220947 96.77252686 -39.06005859 97.87548828 C-43.28603665 106.65100128 -43.28603665 106.65100128 -45 116 C-30.24713616 104.42762369 -23.91135349 88.26983378 -19.25 70.6875 C-18.86184519 69.25944761 -18.4725271 67.83171089 -18.08203125 66.40429688 C-17.36679993 63.7852412 -16.65962056 61.16453349 -15.95800781 58.54174805 C-15.64186523 57.37297119 -15.32572266 56.20419434 -15 55 C-14.6915918 53.73647705 -14.38318359 52.4729541 -14.06542969 51.17114258 C-13 48 -13 48 -10 46 C-6.44873288 44.78038838 -2.8115909 43.85423077 0.8125 42.875 C2.29073242 42.45927734 2.29073242 42.45927734 3.79882812 42.03515625 C8.62545105 40.71909923 12.94665369 39.60534137 18 40 C18 40.66 18 41.32 18 42 C17.34 42 16.68 42 16 42 C16.66 42.99 17.32 43.98 18 45 C19.32 45 20.64 45 22 45 C22.33 45.66 22.66 46.32 23 47 C23.92619141 46.31164062 23.92619141 46.31164062 24.87109375 45.609375 C33.39797536 39.43160385 39.91712673 35.551164 50.6171875 35.56640625 C53.4450472 36.080984 54.20972081 36.80898971 56 39 C56.86625 39.9075 57.7325 40.815 58.625 41.75 C61.33807718 45.11257142 62 47.59852966 62 52 C60.12805709 62.37778874 55.43766583 71.95755062 51 81.4375 C47.11938568 89.7588173 43.85980228 98.27760305 41 107 C45.19123201 104.42810763 48.50395262 102.27893836 51 98 C51.34511351 96.21785647 51.62909003 94.42351805 51.875 92.625 C54.24139303 75.74888131 63.24694556 60.95794129 75 49 C75.82242188 48.16210938 76.64484375 47.32421875 77.4921875 46.4609375 C86.87811223 37.25045062 96.27510108 29.88636076 109.875 29.5 C114.69421924 29.68513207 118.02324854 30.27308471 122 33 C122.66 32.01 123.32 31.02 124 30 C126.33837891 29.47583008 126.33837891 29.47583008 129.2265625 29.26953125 C130.2578125 29.18896484 131.2890625 29.10839844 132.3515625 29.02539062 C133.43179688 28.95513672 134.51203125 28.88488281 135.625 28.8125 C136.71296875 28.73064453 137.8009375 28.64878906 138.921875 28.56445312 C141.61392407 28.36373017 144.30624934 28.17614688 147 28 C147.33 29.65 147.66 31.3 148 33 C149.32 33.33 150.64 33.66 152 34 C151.56325368 40.55119476 150.09110432 46.03158237 147.91015625 52.21484375 C146.85101765 55.45589878 146.44573174 58.62517397 146 62 C145.57810427 63.36939534 145.12586513 64.72961966 144.65234375 66.08203125 C142.97285662 71.01062433 141.5328767 75.98810929 140.125 81 C139.60078569 82.8504093 139.07603836 84.70066768 138.55078125 86.55078125 C138.29119629 87.46553223 138.03161133 88.3802832 137.76416016 89.32275391 C134.93316219 99.24119599 131.97983972 109.12541844 129 119 C131.90188825 118.46060437 134.79417331 117.89473459 137.6875 117.3125 C138.50412109 117.16361328 139.32074219 117.01472656 140.16210938 116.86132812 C145.49832827 115.75951775 148.55997645 114.49242081 152 110 C153.319018 107.33466965 153.319018 107.33466965 154 105 C157.68219043 105.59503077 161.33977364 106.28276222 165 107 C165.90621094 107.14824219 166.81242188 107.29648438 167.74609375 107.44921875 C172.96106952 108.56841446 175.77543609 110.18899601 178.9375 114.5625 C180.5376929 117.65891846 181.1477035 119.22398854 180.4921875 122.66796875 C177.96818672 128.19235457 174.22745262 132.83078376 169 136 C166.78515625 136.65234375 166.78515625 136.65234375 165 137 C167.25285906 134.66049252 169.48875984 132.62096176 172.0625 130.625 C175.12511297 127.88819692 176.51422931 125.79696954 178 122 C178 121.01 178 120.02 178 119 C177.13375 120.5778125 177.13375 120.5778125 176.25 122.1875 C171.76741852 130.35220198 166.76522172 133.26837268 158 136 C150.71692862 137.65932045 143.85001923 138.09218085 136.42578125 137.66796875 C124.51505269 136.62543117 124.51505269 136.62543117 113.85253906 140.72607422 C110.29034497 145.23393881 108.171605 150.36893958 106.04003906 155.66552734 C103.73110228 160.84816902 99.76062092 164.81595039 96 169 C95.40703125 169.69996094 94.8140625 170.39992187 94.203125 171.12109375 C92.50582478 173.11814653 90.76869487 175.06597061 89 177 C88.32453125 177.74121094 87.6490625 178.48242188 86.953125 179.24609375 C77.76393275 188.90777992 67.72051418 194.20469905 55 198 C53.40091797 198.48146484 53.40091797 198.48146484 51.76953125 198.97265625 C38.23912102 202.44820965 20.56552434 203.95973276 8 197 C7.05447266 196.47986328 7.05447266 196.47986328 6.08984375 195.94921875 C3.28830186 194.23385386 1.84417074 192.76625611 0 190 C-0.33 191.32 -0.66 192.64 -1 194 C-2.90318884 191.14521674 -3.4619099 189.58058692 -4.125 186.3125 C-4.29257812 185.50425781 -4.46015625 184.69601563 -4.6328125 183.86328125 C-4.75398438 183.24839844 -4.87515625 182.63351563 -5 182 C-5.99 182 -6.98 182 -8 182 C-7.67 180.35 -7.34 178.7 -7 177 C-6.34 177.33 -5.68 177.66 -5 178 C-5 177.01 -5 176.02 -5 175 C-35.68759076 176.9415619 -65.86611747 182.07647755 -96 188 C-99.75861981 188.73522666 -103.51749726 189.46903242 -107.27709961 190.19921875 C-109.53005879 190.63761531 -111.78223162 191.08008015 -114.03344727 191.52734375 C-115.02787842 191.72199219 -116.02230957 191.91664063 -117.046875 192.1171875 C-117.91151367 192.28847168 -118.77615234 192.45975586 -119.66699219 192.63623047 C-122 193 -122 193 -126 193 C-126 193.66 -126 194.32 -126 195 C-127.27875 195.061875 -128.5575 195.12375 -129.875 195.1875 C-136.68028488 195.84858482 -143.09369065 197.84189116 -149.6328125 199.74609375 C-153.7309595 200.93935112 -157.85306743 201.99142568 -162 203 C-167.43977926 204.32474075 -172.82109546 205.77847129 -178.1875 207.375 C-179.30692993 207.70697388 -179.30692993 207.70697388 -180.44897461 208.0456543 C-182.63330273 208.69493524 -184.81669276 209.34729619 -187 210 C-188.03898437 210.30808594 -189.07796875 210.61617187 -190.1484375 210.93359375 C-197.55468564 213.16738173 -204.90301565 215.57952281 -212.25 218 C-213.77765991 218.49850464 -213.77765991 218.49850464 -215.33618164 219.00708008 C-221.39748732 221.01861253 -227.2170989 223.29323438 -233 226 C-239.54705882 229 -239.54705882 229 -243 229 C-244.47133073 226.89386125 -245.74812469 224.85578532 -247 222.625 C-249.75803744 217.69695381 -249.75803744 217.69695381 -254 214 C-253.34 214.99 -252.68 215.98 -252 217 C-253.65 216.67 -255.3 216.34 -257 216 C-257.33 216.66 -257.66 217.32 -258 218 C-258.66 218 -259.32 218 -260 218 C-260 218.66 -260 219.32 -260 220 C-261.32 220.33 -262.64 220.66 -264 221 C-264 221.66 -264 222.32 -264 223 C-265.984375 224.48046875 -265.984375 224.48046875 -268.75 226.1875 C-269.74515625 226.80238281 -270.7403125 227.41726563 -271.765625 228.05078125 C-286.13901345 236.71300448 -286.13901345 236.71300448 -290 238 C-290 238.66 -290 239.32 -290 240 C-290.9075 240.433125 -291.815 240.86625 -292.75 241.3125 C-295.93359456 242.7695678 -295.93359456 242.7695678 -297.8125 244.75 C-302.01487297 247.15135598 -306.78270837 245.59460243 -311.2578125 244.39453125 C-315.27157192 243.05414296 -318.01974405 241.8367459 -320 238 C-320 237.34 -320 236.68 -320 236 C-321.51517881 234.61761713 -321.51517881 234.61761713 -323.5 233.25 C-324.221875 232.7240625 -324.94375 232.198125 -325.6875 231.65625 C-326.450625 231.1096875 -327.21375 230.563125 -328 230 C-329.50427652 228.92261276 -331.00451979 227.83956415 -332.5 226.75 C-333.1703125 226.27046875 -333.840625 225.7909375 -334.53125 225.296875 C-335.0159375 224.86890625 -335.500625 224.4409375 -336 224 C-336 223.34 -336 222.68 -336 222 C-332.85757945 223.3607132 -330.38144375 225.22013865 -327.73681641 227.37744141 C-319.14207415 234.36311043 -309.51837492 241.67069019 -298 241 C-298 240.34 -298 239.68 -298 239 C-295.54977927 237.32843837 -293.10242946 235.77407011 -290.5625 234.25 C-289.07884491 233.3420965 -287.59576723 232.43324875 -286.11328125 231.5234375 C-285.03941162 230.86746582 -285.03941162 230.86746582 -283.94384766 230.19824219 C-280.22400419 227.9052264 -276.61750907 225.44955239 -273 223 C-270.81331005 221.54043107 -268.62589129 220.08201125 -266.4375 218.625 C-265.40496094 217.93664062 -264.37242187 217.24828125 -263.30859375 216.5390625 C-262.54675781 216.03117188 -261.78492188 215.52328125 -261 215 C-270.18631202 212.74054791 -270.18631202 212.74054791 -279 215 C-280.97381529 216.40244771 -282.88911232 217.85932154 -284.79296875 219.35546875 C-287.91769829 221.68380705 -291.24886419 223.59098934 -294.6171875 225.54296875 C-296.78251102 226.86701084 -298.70511619 228.2970936 -300.6875 229.875 C-304.77177354 232.49510001 -306.2226704 232.86148566 -311 232 C-321.71163254 227.80369034 -332.88487095 221.08591837 -340 212 C-342.294313 210.11056576 -344.666754 208.39000774 -347.07421875 206.6484375 C-349 205 -349 205 -350 202 C-352.78462997 198.98958922 -355.64675101 196.35969373 -359 194 C-357.02 196.475 -357.02 196.475 -355 199 C-355.33 199.66 -355.66 200.32 -356 201 C-366.69777208 188.52437468 -375.06796807 174.34129555 -383 160 C-383.13575439 160.65371582 -383.27150879 161.30743164 -383.41137695 161.98095703 C-384.04463517 165.02906492 -384.67856636 168.07703251 -385.3125 171.125 C-385.52583984 172.15238281 -385.73917969 173.17976562 -385.95898438 174.23828125 C-387.10166112 179.72995157 -388.26165077 185.21707352 -389.44921875 190.69921875 C-390.59462602 196.0225792 -391.6711886 201.35604822 -392.71875 206.69921875 C-393.1624404 208.93888201 -393.60714232 211.17834184 -394.05224609 213.41772461 C-394.35448907 214.9498691 -394.65290193 216.48277343 -394.94775391 218.01635742 C-395.38162928 220.2670563 -395.83001248 222.51444547 -396.28125 224.76171875 C-396.47358215 225.78817757 -396.47358215 225.78817757 -396.6697998 226.83537292 C-397.40188978 230.40651939 -397.98773882 232.80990561 -401 235 C-402.98166034 236.0358679 -404.98473831 237.03112419 -407 238 C-408.670625 238.99 -408.670625 238.99 -410.375 240 C-414.09265138 242.13360862 -417.94569659 243.63511842 -422 245 C-423.49080078 245.53173828 -423.49080078 245.53173828 -425.01171875 246.07421875 C-432.20984955 248.50199068 -438.41360724 249.54731491 -446 249 C-446 246.33333333 -446 243.66666667 -446 241 C-447.65 241.33 -449.3 241.66 -451 242 C-452.2455842 238.26324741 -451.22970276 236.54269765 -449.94580078 232.94921875 C-448.80937226 229.40557999 -447.99321283 225.8148668 -447.1796875 222.1875 C-445.36418649 214.29393855 -443.22296972 206.53096426 -440.93966675 198.76177979 C-437.17751527 185.94399368 -433.68937263 173.08102489 -430.4375 160.125 C-427.3680949 147.90951813 -423.92109229 135.89680957 -420.10229492 123.89208984 C-417.74566772 116.4730203 -415.5913779 109.04430834 -413.6796875 101.49902344 C-412.16015366 95.50917084 -410.44320869 89.59194981 -408.61035156 83.69042969 C-407.32003837 79.44659172 -406.52289211 75.38774686 -406 71 C-406.66 70.67 -407.32 70.34 -408 70 C-407.34 69.34 -406.68 68.68 -406 68 C-407.98 68.99 -409.96 69.98 -412 71 C-411.67 71.66 -411.34 72.32 -411 73 C-411.67566967 74.89187508 -412.36570147 76.78003852 -413.1328125 78.63671875 C-414.06900833 81.01215685 -414.06900833 81.01215685 -414.5546875 83.64453125 C-415.12993172 86.33557099 -415.7129637 88.56398319 -417 91 C-419.84397557 92.8320088 -422.70675126 93.37853209 -426 94 C-427.47979179 94.43538092 -428.95900687 94.87272923 -430.4375 95.3125 C-431.613125 95.539375 -432.78875 95.76625 -434 96 C-434.99 95.01 -434.99 95.01 -436 94 C-435.64700993 90.55834679 -434.95418308 88.93127462 -433 86 C-433.78375 86.99 -434.5675 87.98 -435.375 89 C-436.24125 89.99 -437.1075 90.98 -438 92 C-438.66 92 -439.32 92 -440 92 C-440.309375 92.78375 -440.61875 93.5675 -440.9375 94.375 C-442 97 -442 97 -443 99 C-437.22240116 99.12036664 -431.72040011 98.8320582 -426 98 C-426.5567708 101.34062479 -427.0881342 104.17772191 -429 107 C-430.40521004 107.93680669 -431.81606388 108.86655811 -433.2578125 109.74609375 C-435.31115209 111.22394578 -436.81040003 112.93073523 -438.5 114.8125 C-445.53881177 122.09685172 -455.98996516 127.03179204 -466.125 127.3125 C-472.0642034 127.28851937 -476.70806356 125.57135307 -482 123 C-482.2773501 126.18490007 -482.2773501 126.18490007 -480 129 C-482.64815804 127.9972456 -483.79133691 127.37300232 -485.1953125 124.86328125 C-487.11511355 119.59592796 -487.11511355 119.59592796 -488 117 C-488.4125 115.80375 -488.825 114.6075 -489.25 113.375 C-491.91500813 101.38246342 -487.39093043 90.17791592 -481.12109375 79.984375 C-477.24356647 74.52870126 -472.69557538 69.75898678 -468 65 C-467.46648926 64.4438501 -466.93297852 63.8877002 -466.38330078 63.31469727 C-462.16706633 58.97931618 -457.69783594 55.20494477 -452.875 51.5625 C-452.12710205 50.99611816 -451.3792041 50.42973633 -450.60864258 49.84619141 C-444.31135417 45.1338249 -437.84040634 40.8849632 -431 37 C-429.92008789 36.37810791 -429.92008789 36.37810791 -428.81835938 35.74365234 C-396.8536468 17.40551522 -355.39283106 -2.14196757 -317.4609375 6.90625 C-308.36019199 9.7823321 -300.45833465 13.78186127 -294 21 C-294 21.66 -294 22.32 -294 23 C-293.34 23 -292.68 23 -292 23 C-282.94534435 35.63806184 -278.70882525 47.45769795 -278.5625 63.0625 C-278.55210693 64.07505859 -278.54171387 65.08761719 -278.53100586 66.13085938 C-278.54268799 67.08927734 -278.55437012 68.04769531 -278.56640625 69.03515625 C-278.57615479 69.8950415 -278.58590332 70.75492676 -278.59594727 71.64086914 C-279.08015689 74.46800966 -280.28750925 75.74478054 -282 78 C-282 79.32 -282 80.64 -282 82 C-281.030625 81.71125 -280.06125 81.4225 -279.0625 81.125 C-278.41539062 80.94582031 -277.76828125 80.76664062 -277.1015625 80.58203125 C-275.73638754 80.20394376 -274.37637282 79.80650303 -273.0234375 79.38671875 C-264.96837126 77.16931288 -255.38397205 77.16379506 -247.625 80.5 C-240.80307227 84.51117639 -236.22579589 91.51172047 -232 98 C-231.74420166 97.48203857 -231.48840332 96.96407715 -231.22485352 96.43041992 C-223.22268734 80.36726123 -214.22118681 63.27535335 -196.0625 56.9375 C-187.57471074 54.92507255 -178.70558561 54.644669 -171 59 C-170.01 59.66 -169.02 60.32 -168 61 C-168 61.66 -168 62.32 -168 63 C-167.34 63 -166.68 63 -166 63 C-164.5625 64.609375 -164.5625 64.609375 -163 66.75 C-162.2265625 67.79414063 -162.2265625 67.79414063 -161.4375 68.859375 C-156.86780226 75.66425099 -157.19838514 83.03510552 -158 91 C-159.69405962 98.19214535 -164.57052243 105.13046888 -170.796875 109.1640625 C-174.54765816 110.93987577 -177.91408699 111.60854024 -182 111 C-186.0029678 109.11625045 -188.197716 107.26731942 -189.9375 103.25 C-191.23522311 99.05376959 -191.38166047 95.19432643 -190 91 C-188.79583361 88.99034394 -187.47640709 87.09086847 -186.14453125 85.1640625 C-184.12564081 81.34677477 -184.0958342 77.25155375 -184 73 C-189.48879299 74.86618962 -192.24180447 76.94737414 -195.73828125 81.57421875 C-196.15464844 82.04472656 -196.57101562 82.51523438 -197 83 C-197.66 83 -198.32 83 -199 83 C-199.061875 83.763125 -199.12375 84.52625 -199.1875 85.3125 C-199.92631598 88.66558791 -200.8981691 91.06046501 -202.375 94.125 C-207.31807266 104.63974416 -210.20975325 116.46017748 -208 128 C-206.18308401 126.18308401 -206.52056673 123.2067459 -206.25 120.75 C-204.81652062 110.31214647 -201.15445861 99.67580133 -195 91 C-193.515 90.01 -193.515 90.01 -192 89 C-193.44950455 92.7910119 -195.15172566 96.3874638 -197 100 C-196.34 99.67 -195.68 99.34 -195 99 C-196.41921047 103.4759715 -198.00200584 107.75426241 -200 112 C-200.66 112.33 -201.32 112.66 -202 113 C-204.5011561 120.08660895 -204.66511156 127.54683812 -204 135 C-201.48477991 137.51522009 -200.49221899 137.35317085 -197 137.4375 C-189.90632383 137.32564177 -184.39599629 134.62222498 -178.83984375 130.33203125 C-177 129 -177 129 -175 129 C-175 128.34 -175 127.68 -175 127 C-173.42390243 125.49203345 -171.72805292 124.18303107 -170.01953125 122.828125 C-165.1009847 118.3757463 -162.43953866 114.47233306 -160.4765625 108.12109375 C-160.27229645 107.47087753 -160.0680304 106.82066132 -159.85757446 106.15074158 C-159.22128717 104.10525239 -158.60782236 102.05411123 -158 100 C-157.71183411 99.03915497 -157.71183411 99.03915497 -157.41784668 98.05889893 C-156.02633509 93.40570678 -154.69468307 88.73648912 -153.375 84.0625 C-152.95057269 82.56712395 -152.52609213 81.07176302 -152.1015625 79.57641602 C-150.72569239 74.72003823 -149.36096097 69.86057491 -148 65 C-147.75495728 64.12484741 -147.50991455 63.24969482 -147.25744629 62.34802246 C-145.74086236 56.92605747 -144.23165052 51.5020963 -142.73028564 46.07589722 C-142.24819317 44.33417952 -141.76509978 42.59273852 -141.28094482 40.85159302 C-140.6002412 38.40076969 -139.92433242 35.94867683 -139.25 33.49609375 C-138.93314743 32.35667076 -138.93314743 32.35667076 -138.6098938 31.19422913 C-137.50942632 27.16435808 -136.68179005 23.22469801 -136.09375 19.08203125 C-135.4171036 15.47881158 -135.21171681 15.17100204 -132.15625 12.703125 C-130.9496875 12.22359375 -129.743125 11.7440625 -128.5 11.25 C-127.84652588 10.98179443 -127.19305176 10.71358887 -126.51977539 10.43725586 C-124.36243503 9.57386356 -122.18802618 8.78214511 -120 8 C-119.21737793 7.7107666 -118.43475586 7.4215332 -117.62841797 7.12353516 C-102.5099054 1.57834736 -102.5099054 1.57834736 -96 2 C-96 2.66 -96 3.32 -96 4 C-95.34 4.66 -94.68 5.32 -94 6 C-95.32 6 -96.64 6 -98 6 C-98 6.66 -98 7.32 -98 8 C-95.69 7.34 -93.38 6.68 -91 6 C-91 8.31 -91 10.62 -91 13 C-89.68 11.68 -88.36 10.36 -87 9 C-88.44194867 13.57906627 -90.22728165 17.93706133 -92.1875 22.3125 C-94.81808942 28.27189135 -97.41562457 34.24370622 -99.9375 40.25 C-100.39709106 41.32181519 -100.39709106 41.32181519 -100.8659668 42.4152832 C-102.31390015 45.89123939 -103 48.17440456 -103 52 C-99.806949 49.30922669 -96.64169256 46.64169256 -93.6875 43.6875 C-91.39876666 41.39876666 -90.44948716 41.01556396 -87.1796875 40.90234375 C-86.08914063 40.91394531 -84.99859375 40.92554688 -83.875 40.9375 C-82.77929688 40.94652344 -81.68359375 40.95554688 -80.5546875 40.96484375 C-79.71164062 40.97644531 -78.86859375 40.98804688 -78 41 C-78 41.33 -78 41.66 -78 42 C-78.65226562 42.02578125 -79.30453125 42.0515625 -79.9765625 42.078125 C-85.80203367 42.45617918 -89.36818262 43.19161682 -94 47 C-94.58652344 47.48082031 -95.17304688 47.96164063 -95.77734375 48.45703125 C-98.41886689 50.66295438 -100.91024631 52.90782053 -103.3125 55.375 C-105 57 -105 57 -107 57 C-107 55.02 -107 53.04 -107 51 C-108.49810798 52.49810798 -108.96673633 54.26039781 -109.7421875 56.2265625 C-110.25845703 57.52787109 -110.25845703 57.52787109 -110.78515625 58.85546875 C-111.14480469 59.76941406 -111.50445312 60.68335938 -111.875 61.625 C-114.17672114 67.45096817 -116.498135 73.256725 -119 79 C-107.96851049 70.81534649 -96.54431952 61.63358703 -91.046875 48.8203125 C-90 47 -90 47 -86.8125 45.5625 C-80.21884322 46.31914914 -75.06239836 48.93760164 -70.375 53.625 C-68.21560037 58.92534455 -67.7332732 64.60051891 -69.765625 70.0546875 C-70.75 71.8125 -70.75 71.8125 -73 75 C-73.70125 76.051875 -74.4025 77.10375 -75.125 78.1875 C-75.74375 79.115625 -76.3625 80.04375 -77 81 C-77.33 81.763125 -77.66 82.52625 -78 83.3125 C-78.33 83.869375 -78.66 84.42625 -79 85 C-79.56589844 85.12117188 -80.13179688 85.24234375 -80.71484375 85.3671875 C-83.84434301 86.23381806 -85.95077243 87.89723312 -88.5625 89.8125 C-89.51253906 90.49957031 -90.46257812 91.18664062 -91.44140625 91.89453125 C-93.7777088 93.8170764 -95.31257556 95.51878714 -97 98 C-98.60732353 100.07950463 -100.25216092 102.02807899 -102 104 C-102.66 104 -103.32 104 -104 104 C-102.03332451 113.20799198 -102.03332451 113.20799198 -97 121 C-91.72225851 120.69551491 -88.80433517 119.69244296 -85 116 C-84.67 115.34 -84.34 114.68 -84 114 C-83.34 114 -82.68 114 -82 114 C-81.7525 113.443125 -81.505 112.88625 -81.25 112.3125 C-80 110 -80 110 -78.08789062 107.76977539 C-75.78331717 104.71255066 -74.63561461 101.96917779 -73.34375 98.37109375 C-73.11473999 97.74074722 -72.88572998 97.1104007 -72.64978027 96.46095276 C-71.92412578 94.45626573 -71.21204528 92.44705538 -70.5 90.4375 C-70.02298687 89.11622875 -69.54512863 87.79526229 -69.06640625 86.47460938 C-66.56712438 79.5497646 -64.17067562 72.59898674 -61.93798828 65.58276367 C-60.13578536 60.62037306 -57.75266185 55.75266185 -54 52 C-51.75341797 51.22216797 -51.75341797 51.22216797 -48.9921875 50.4921875 C-48.00605469 50.22792969 -47.01992188 49.96367188 -46.00390625 49.69140625 C-44.97136719 49.42199219 -43.93882812 49.15257812 -42.875 48.875 C-41.83472656 48.59785156 -40.79445313 48.32070312 -39.72265625 48.03515625 C-37.1499844 47.35068392 -34.57580149 46.67258094 -32 46 C-32.61560791 45.87375244 -33.23121582 45.74750488 -33.86547852 45.61743164 C-34.67428467 45.44590576 -35.48309082 45.27437988 -36.31640625 45.09765625 C-37.11763916 44.93015869 -37.91887207 44.76266113 -38.74438477 44.59008789 C-42.08662692 43.71572927 -43.76263605 42.6441574 -46 40 C-48.14788904 34.52773998 -48.74664391 28.65156118 -47 23 C-44.93982598 18.86477706 -42.50926309 15.04949333 -39 12 C-38.34 12 -37.68 12 -37 12 C-37 11.34 -37 10.68 -37 10 C-30.53440477 4.69746155 -23.47858933 1.0262902 -15 1 C-11.31448906 1.83370625 -8.69564108 3.30435892 -6 6 C-6 7.32 -6 8.64 -6 10 C-4.02 10.99 -4.02 10.99 -2 12 C-1.972807 13.58323688 -1.95351694 15.16661062 -1.9375 16.75 C-1.92589844 17.63171875 -1.91429687 18.5134375 -1.90234375 19.421875 C-1.99173802 21.7818838 -2.33087179 23.74498524 -3 26 C-2.67 25.01 -2.34 24.02 -2 23 C-1.34 23 -0.68 23 0 23 C1.65642737 15.54607684 1.72005735 7.43993062 0 0 Z M-99 9 C-104.77713651 19.56953384 -108.8653104 30.71408915 -113 42 C-113.44214844 43.2065625 -113.88429688 44.413125 -114.33984375 45.65625 C-116.27712059 51.03105173 -118.14861557 56.42727717 -120.01171875 61.828125 C-120.54925781 63.38297607 -120.54925781 63.38297607 -121.09765625 64.96923828 C-121.8126492 67.03957852 -122.52498067 69.11084021 -123.234375 71.18310547 C-123.56308594 72.13588379 -123.89179688 73.08866211 -124.23046875 74.0703125 C-124.52332764 74.92383301 -124.81618652 75.77735352 -125.11791992 76.65673828 C-126 79 -126 79 -127.1105957 81.12060547 C-128.21387912 83.10540961 -128.21387912 83.10540961 -128 86 C-123.74543094 84.48051105 -122.29630636 81.76608618 -120 78 C-119.03514912 75.82987748 -118.13774349 73.6288303 -117.30078125 71.40625 C-117.06442459 70.78604477 -116.82806793 70.16583954 -116.58454895 69.52684021 C-116.08114132 68.20405819 -115.58096328 66.88004317 -115.08380127 65.55490112 C-113.77321576 62.06323873 -112.43763232 58.58112967 -111.10546875 55.09765625 C-110.84072754 54.40346085 -110.57598633 53.70926544 -110.30322266 52.99403381 C-107.99091033 46.94203327 -105.58761097 40.92997824 -103.125 34.9375 C-102.765271 34.0599707 -102.40554199 33.18244141 -102.03491211 32.27832031 C-100.42386428 28.3710707 -98.78348464 24.48035195 -97.078125 20.61328125 C-96.64282471 19.6224353 -96.64282471 19.6224353 -96.19873047 18.61157227 C-95.44075089 16.89859234 -94.67018257 15.19119744 -93.8984375 13.484375 C-93.60195313 12.66453125 -93.30546875 11.8446875 -93 11 C-93.495 10.01 -93.495 10.01 -94 9 C-95.65 9 -97.3 9 -99 9 Z M-7 12 C-7.33 13.134375 -7.66 14.26875 -8 15.4375 C-11.56803244 24.81395735 -19.2588153 30.65269677 -28 35 C-31.56045177 36.18681726 -34.43808337 36.09689832 -38.1875 36.0625 C-39.45980469 36.05347656 -40.73210937 36.04445313 -42.04296875 36.03515625 C-43.50669922 36.01775391 -43.50669922 36.01775391 -45 36 C-43.59076204 40.03400025 -43.59076204 40.03400025 -40.4375 42.875 C-34.14791016 44.93341122 -28.01724349 43.48037109 -21.98828125 41.015625 C-16.83159396 38.38156076 -12.3216876 35.42899676 -10 30 C-9.34 30 -8.68 30 -8 30 C-3.33838072 21.37911848 -3.33838072 21.37911848 -4 12 C-4.99 12 -5.98 12 -7 12 Z M-98 26 C-97 28 -97 28 -97 28 Z M-99 28 C-98 30 -98 30 -98 30 Z M-6 28 C-5 30 -5 30 -5 30 Z M-100 30 C-99 33 -99 33 -99 33 Z M-9 32 C-9.33 32.66 -9.66 33.32 -10 34 C-9.34 34 -8.68 34 -8 34 C-8.33 33.34 -8.66 32.68 -9 32 Z M-101 33 C-100 35 -100 35 -100 35 Z M-11 34 C-11.33 34.66 -11.66 35.32 -12 36 C-11.34 36 -10.68 36 -10 36 C-10.33 35.34 -10.66 34.68 -11 34 Z M-102 35 C-101 38 -101 38 -101 38 Z M146 36 C142.95922115 46.54567984 139.94721035 57.09792164 137.0625 67.6875 C136.81878662 68.58170654 136.57507324 69.47591309 136.32397461 70.3972168 C134.94510818 75.47360713 133.58632733 80.55492872 132.2421875 85.640625 C129.17091078 97.22688346 126.04287114 108.70976998 122 120 C123.32 120 124.64 120 126 120 C131.62091675 106.47999192 135.31442356 92.4883936 139.09667969 78.36621094 C140.27158444 73.98794427 141.47316602 69.61747093 142.6875 65.25 C142.87932861 64.55777344 143.07115723 63.86554688 143.26879883 63.15234375 C144.91435321 57.24269997 146.63884115 51.35686455 148.3894043 45.47753906 C149.32460139 42.33232964 150.24647191 39.19430385 151 36 C149.35 36 147.7 36 146 36 Z M-286 37 C-285 39 -285 39 -285 39 Z M-365 40 C-366.0828125 40.26425781 -367.165625 40.52851562 -368.28125 40.80078125 C-371.19177668 41.51821248 -374.09723999 42.25186598 -377 43 C-377 43.33 -377 43.66 -377 44 C-373.37 44 -369.74 44 -366 44 C-365.67 45.65 -365.34 47.3 -365 49 C-364.36578125 48.855625 -363.7315625 48.71125 -363.078125 48.5625 C-356.26853644 47.2081067 -349.61073466 46.75365366 -342.6875 46.6875 C-341.84026367 46.67009766 -340.99302734 46.65269531 -340.12011719 46.63476562 C-334.62119526 46.63909038 -330.90936011 47.52039934 -326 50 C-324.3357865 50.67276716 -322.67013418 51.34206835 -321 52 C-322.17255709 48.66272214 -323.18868404 46.22562513 -326 44 C-326.66 44 -327.32 44 -328 44 C-328 43.34 -328 42.68 -328 42 C-329.03125 41.525625 -330.0625 41.05125 -331.125 40.5625 C-331.70507812 40.29566406 -332.28515625 40.02882812 -332.8828125 39.75390625 C-342.94791371 36.16983885 -354.84429219 37.41405588 -365 40 Z M-103 38 C-102 40 -102 40 -102 40 Z M-285 39 C-285.03738281 40.29292969 -285.07476562 41.58585937 -285.11328125 42.91796875 C-285.60762613 57.01223016 -286.78240173 69.57901693 -294 82 C-294.61230469 83.06476563 -295.22460938 84.12953125 -295.85546875 85.2265625 C-304.72295368 100.14863579 -304.72295368 100.14863579 -312 105 C-312 105.66 -312 106.32 -312 107 C-312.55558594 107.24363281 -313.11117187 107.48726563 -313.68359375 107.73828125 C-316.46922966 109.25558378 -318.65225667 111.12512684 -321.0625 113.1875 C-329.87488146 120.45568286 -339.02702969 125.71025202 -349.42626953 130.33618164 C-353.40675012 131.86393602 -353.40675012 131.86393602 -356 135 C-354.60907108 137.62387135 -354.60907108 137.62387135 -353 140 C-337.44171818 138.64710593 -320.97222215 127.92026607 -310.625 116.625 C-307.75051965 113.00683142 -305.77312687 108.91944873 -303.62890625 104.84375 C-300.16854444 98.80263873 -295.95320513 93.30766722 -290.3125 89.1875 C-282.9634 83.2142589 -281.37911713 71.80772854 -280.28515625 62.91796875 C-280.14400391 61.47357422 -280.14400391 61.47357422 -280 60 C-279.87431641 58.94232422 -279.87431641 58.94232422 -279.74609375 57.86328125 C-279.31975919 51.30323013 -281.90994601 45.12087239 -284 39 C-284.33 39 -284.66 39 -285 39 Z M-105 43 C-105.66 44.98 -106.32 46.96 -107 49 C-104.7522025 46.94766315 -103.9977758 45.99332739 -103 43 C-103.66 43 -104.32 43 -105 43 Z M57 45 C56.731875 46.10214844 56.46375 47.20429687 56.1875 48.33984375 C53.12519173 60.38180267 49.05020817 71.97618994 42.39453125 82.55078125 C40.67477594 85.57119184 39.76623982 88.53508356 38.8125 91.875 C38.46832031 93.04804688 38.12414062 94.22109375 37.76953125 95.4296875 C36.98616364 99.06419509 36.86257764 102.29433509 37 106 C37.99 106.33 38.98 106.66 40 107 C40.25652344 106.07703125 40.51304687 105.1540625 40.77734375 104.203125 C43.89945301 93.41612519 48.24434284 83.42878554 52.96484375 73.25585938 C57.05210714 64.3487099 60.31889334 56.88569356 60 47 C59.67 46.34 59.34 45.68 59 45 C58.34 45 57.68 45 57 45 Z M105 47 C105 47.66 105 48.32 105 49 C104.42765625 49.24492188 103.8553125 49.48984375 103.265625 49.7421875 C91.98610971 56.00426323 84.95118625 72.01770621 81.39453125 83.97265625 C80.37854341 89.19342546 80.00537736 93.50806604 83 98 C83.31453125 96.9378125 83.6290625 95.875625 83.953125 94.78125 C87.98586041 81.35997618 93.42723421 71.11804962 102 60 C102.33 60 102.66 60 103 60 C102.25556641 60.98226562 102.25556641 60.98226562 101.49609375 61.984375 C88.5440296 79.29975588 88.5440296 79.29975588 85 100 C89.97874064 99.52583422 93.06718758 98.0900669 97 95 C97 94.34 97 93.68 97 93 C97.66 93 98.32 93 99 93 C109.32938655 81.60045178 113.63165223 67.83333605 116 53 C115.34 52.67 114.68 52.34 114 52 C112.20459489 52.76501555 112.20459489 52.76501555 110.375 53.9375 C109.26125 54.618125 108.1475 55.29875 107 56 C112.625 52.125 112.625 52.125 116 51 C116 49.35 116 47.7 116 46 C111.58937864 44.9742741 109.07369424 44.96315288 105 47 Z M14.375 49.125 C11.79273348 52.25090158 11.27782686 54.01781501 11 58 C14.63559661 54.56638098 17.36113346 51.2026393 20 47 C16.82573677 46.68540089 16.82573677 46.68540089 14.375 49.125 Z M-367 51 C-371.78291266 67.86511502 -376.34439216 84.73956635 -380.0625 101.875 C-380.21397491 102.56907959 -380.36544983 103.26315918 -380.52151489 103.97827148 C-382.30186288 111.42355262 -382.30186288 111.42355262 -383 119 C-380.06556598 118.73343428 -380.06556598 118.73343428 -377 118 C-375.05684099 115.08526148 -374.48236423 113.41908092 -373.73828125 110.07421875 C-373.50971436 109.06407715 -373.28114746 108.05393555 -373.0456543 107.01318359 C-372.80371338 105.91570801 -372.56177246 104.81823242 -372.3125 103.6875 C-371.78456596 101.33968358 -371.2558889 98.99203415 -370.7265625 96.64453125 C-370.44844727 95.40525879 -370.17033203 94.16598633 -369.88378906 92.88916016 C-368.97337014 88.88281392 -368.03524047 84.8839774 -367.0859375 80.88671875 C-366.7665104 79.53751859 -366.44709301 78.18831614 -366.12768555 76.83911133 C-365.51279151 74.24304642 -364.89379808 71.64806747 -364.27270508 69.0534668 C-362.85379706 63.03779937 -361.59098085 57.15541097 -361 51 C-362.98 51 -364.96 51 -367 51 Z M-338 50 C-337.401875 50.433125 -336.80375 50.86625 -336.1875 51.3125 C-331.99887438 54.54372548 -330.31790289 56.72838845 -329 62 C-328.22107545 68.62085864 -330.55714742 73.96920768 -333 80 C-330.09755613 73.15852517 -328.94375112 66.41445293 -330 59 C-331.69547297 55.52973369 -332.74488226 54.17007849 -336 52 C-342.36236756 50.1821807 -348.60076343 50.90174159 -355 52 C-357.8118595 62.23793125 -360.36067377 72.51442054 -362.71972656 82.86547852 C-363.25849335 85.22469163 -363.80487918 87.58206336 -364.3515625 89.93945312 C-364.69837359 91.45302038 -365.0447448 92.9666885 -365.390625 94.48046875 C-365.55306702 95.17835007 -365.71550903 95.87623138 -365.88287354 96.59526062 C-366.619631 99.85743545 -367 102.6290198 -367 106 C-362.09690194 105.47729735 -358.81611493 103.9987369 -354.625 101.4375 C-353.56539062 100.79683594 -352.50578125 100.15617187 -351.4140625 99.49609375 C-350.61742187 99.00238281 -349.82078125 98.50867188 -349 98 C-351.01714277 99.27701821 -353.0383933 100.54660194 -355.0625 101.8125 C-355.62388672 102.16892578 -356.18527344 102.52535156 -356.76367188 102.89257812 C-360.71651816 105.35463667 -364.68087454 107.25584361 -369 109 C-368.84442627 108.30253662 -368.68885254 107.60507324 -368.52856445 106.88647461 C-366.95466608 99.82674622 -365.38594096 92.76588504 -363.82128906 85.70410156 C-363.2956525 83.33342443 -362.76905146 80.96296082 -362.24121094 78.59277344 C-361.55302201 75.50013669 -360.86962311 72.40647948 -360.1875 69.3125 C-359.9810083 68.38880615 -359.7745166 67.4651123 -359.56176758 66.51342773 C-358.42917038 61.34990714 -357.5690836 56.25637437 -357 51 C-359.47920196 53.96261182 -360.61940988 56.45286311 -361.5625 60.1875 C-361.80742187 61.15429688 -362.05234375 62.12109375 -362.3046875 63.1171875 C-362.53414062 64.06851563 -362.76359375 65.01984375 -363 66 C-363.20882812 66.82757813 -363.41765625 67.65515625 -363.6328125 68.5078125 C-364.44069819 71.86452067 -365 74.78115089 -365 78.25 C-365 81.29501552 -365.84186826 83.22048382 -367 86 C-366.67 86.66 -366.34 87.32 -366 88 C-366.66 88 -367.32 88 -368 88 C-369.00771516 91.91472324 -370.0048281 95.832071 -371 99.75 C-371.28617187 100.86117187 -371.57234375 101.97234375 -371.8671875 103.1171875 C-372.27324219 104.72207031 -372.27324219 104.72207031 -372.6875 106.359375 C-372.93886719 107.34389648 -373.19023437 108.32841797 -373.44921875 109.34277344 C-374.13530839 112.20050627 -374.13530839 112.20050627 -374 116 C-361.13734062 112.88806628 -349.77338319 106.8892778 -340 98 C-339.13375 97.21496094 -338.2675 96.42992187 -337.375 95.62109375 C-331.7408307 90.2636024 -327.5613332 84.90008308 -324 78 C-323.5875 77.28328125 -323.175 76.5665625 -322.75 75.828125 C-319.42525099 69.50186646 -318.91247872 63.03578985 -320 56 C-322.47550712 52.21393029 -323.84603618 51.29414764 -328.1875 50.1875 C-329.78932807 50.08071146 -331.39461626 50 -333 50 C-334.66666667 50 -336.33333333 50 -338 50 Z M-411.6875 57.25 C-412.52804932 57.69166504 -413.36859863 58.13333008 -414.23461914 58.58837891 C-424.06399781 63.90880886 -434.55011463 70.52318807 -442 79 C-442 79.66 -442 80.32 -442 81 C-442.66 81 -443.32 81 -444 81 C-447.309427 86.12427406 -448.89746244 89.84774628 -449 96 C-447.72780266 98.02977977 -447.72780266 98.02977977 -446 99 C-445.484375 98.34 -444.96875 97.68 -444.4375 97 C-443.633125 96.01 -442.82875 95.02 -442 94 C-441.525625 93.40703125 -441.05125 92.8140625 -440.5625 92.203125 C-431.22622987 80.98164647 -418.6737923 72.70780543 -406.1796875 65.3359375 C-403.6061822 63.7586278 -402.22767243 62.7785835 -401.3671875 59.8359375 C-401.20476562 59.02382812 -401.04234375 58.21171875 -400.875 57.375 C-400.70742188 56.55773437 -400.53984375 55.74046875 -400.3671875 54.8984375 C-400.18542969 53.95871094 -400.18542969 53.95871094 -400 53 C-404.51019604 53 -407.74851875 55.17905724 -411.6875 57.25 Z M-72 57 C-72.53625 58.175625 -73.0725 59.35125 -73.625 60.5625 C-78.79294671 70.75533608 -87.86378789 77.07152506 -96.75390625 83.87890625 C-97.38619141 84.36649414 -98.01847656 84.85408203 -98.66992188 85.35644531 C-99.90907281 86.3097859 -101.15370181 87.2560581 -102.40429688 88.19433594 C-106.66961323 91.38799919 -106.66961323 91.38799919 -109 96 C-108.81972049 98.16143558 -108.81972049 98.16143558 -108.125 100.25 C-107.75375 101.4875 -107.3825 102.725 -107 104 C-106.52433594 103.32066406 -106.04867188 102.64132813 -105.55859375 101.94140625 C-102.14208624 98.01372662 -98.20052091 95.07176001 -94.0625 91.9375 C-92.46989176 90.71765721 -90.8774396 89.49761061 -89.28515625 88.27734375 C-86.84159914 86.40555885 -84.39271343 84.54279444 -81.93359375 82.69140625 C-81.29550781 82.13324219 -80.65742188 81.57507813 -80 81 C-80 80.34 -80 79.68 -80 79 C-79.34 79 -78.68 79 -78 79 C-73.4468421 74.01379719 -70.21200393 69.1270579 -69.75 62.3125 C-69.64398471 58.92142442 -69.64398471 58.92142442 -72 57 Z M23 63 C19.86242016 65.17887489 16.93003346 67.55002852 14 70 C13.02546875 70.78375 12.0509375 71.5675 11.046875 72.375 C-2.89295165 84.73529374 -6.67218224 106.37715745 -10 124 C-10 125.32 -10 126.64 -10 128 C-11.86205078 128.34611328 -11.86205078 128.34611328 -13.76171875 128.69921875 C-15.40384646 129.02764429 -17.04576292 129.35712731 -18.6875 129.6875 C-19.50412109 129.83638672 -20.32074219 129.98527344 -21.16210938 130.13867188 C-26.48627929 131.23799441 -29.61332759 132.47364433 -33 137 C-34.33563611 140.16701423 -34.33563611 140.16701423 -35 143 C-33.71029297 142.60167969 -33.71029297 142.60167969 -32.39453125 142.1953125 C-25.09002774 140.01272367 -18.1299273 138.39845473 -10.546875 137.4921875 C-7.84286441 137.21626074 -7.84286441 137.21626074 -6 135 C-5.39575835 132.90839429 -4.88172857 130.79037642 -4.4140625 128.6640625 C-4.27100677 128.02947113 -4.12795105 127.39487976 -3.9805603 126.74105835 C-3.52173701 124.70385551 -3.07238402 122.6647433 -2.625 120.625 C1.2868462 102.83171282 5.28994162 88.04689716 18.91015625 75.1484375 C21.91380701 72.06057223 23.89046222 68.74272831 26 65 C25.01 64.34 24.02 63.68 23 63 Z M-163 70 C-162.94779297 71.03447266 -162.94779297 71.03447266 -162.89453125 72.08984375 C-162.64877326 80.62115685 -163.9223265 87.93541078 -169 95 C-169.66 95.33 -170.32 95.66 -171 96 C-171 96.66 -171 97.32 -171 98 C-176.69398894 100.09570426 -181.95198929 101.45018084 -188 102 C-187.7041325 104.86005251 -187.15920836 105.85571743 -185 107.8125 C-180.77511341 109.48485094 -177.36711054 109.05031772 -173 108 C-170.00087891 106.74018903 -170.00087891 106.74018903 -168 105 C-168 104.34 -168 103.68 -168 103 C-166.515 102.505 -166.515 102.505 -165 102 C-163.57254385 100.08672082 -163.57254385 100.08672082 -162.375 97.75 C-161.94960938 96.98171875 -161.52421875 96.2134375 -161.0859375 95.421875 C-158.27761123 89.15870131 -157.58379903 80.45444606 -159.671875 73.88671875 C-160.53389306 72.10222246 -160.53389306 72.10222246 -162 70 C-162.33 70 -162.66 70 -163 70 Z M-431.6875 87.25 C-434.42906662 89.91139629 -434.42906662 89.91139629 -434 94 C-432.06213915 93.52229477 -430.12472326 93.04278429 -428.1875 92.5625 C-427.10855469 92.29566406 -426.02960938 92.02882813 -424.91796875 91.75390625 C-422.9259157 91.23922588 -420.95188476 90.65062825 -419 90 C-417.74963485 87.8176055 -417.74963485 87.8176055 -416.8125 85.1875 C-416.46832031 84.31480469 -416.12414062 83.44210938 -415.76953125 82.54296875 C-414.80690659 79.80471843 -414.80690659 79.80471843 -415 76 C-420.66738863 76 -427.64798952 83.47204056 -431.6875 87.25 Z M-102 99 C-101.67 99.66 -101.34 100.32 -101 101 C-100.67 100.34 -100.34 99.68 -100 99 C-100.66 99 -101.32 99 -102 99 Z M-278 107 C-286.26943307 118.96627164 -292.6224526 137.37569223 -290 152 C-288.574441 154.28676618 -288.574441 154.28676618 -287 156 C-286.92523438 155.030625 -286.85046875 154.06125 -286.7734375 153.0625 C-285.8016929 142.59188608 -283.08605727 133.662626 -279 124 C-279.28746094 124.68191406 -279.57492187 125.36382812 -279.87109375 126.06640625 C-283.83030687 136.35488048 -286.08192582 146.95639974 -286 158 C-284.8672967 159.36364533 -284.8672967 159.36364533 -281.875 159.0625 C-277.42429957 158.33287698 -275.35152038 155.79025046 -272.62890625 152.3671875 C-264.81884949 141.01732084 -258.70188179 124.98671278 -259 111 C-259.66 110.01 -260.32 109.02 -261 108 C-263.37124598 107.41511438 -263.37124598 107.41511438 -266 108 C-268.7905817 109.89816542 -268.7905817 109.89816542 -271 112 C-267.92000054 108.32769295 -265.7517398 107.43197635 -261 107 C-261.57452746 103.06924356 -261.57452746 103.06924356 -264 100 C-270.30219502 99.2474991 -273.9129821 102.54515049 -278 107 Z M-236 111 C-235 113 -235 113 -235 113 Z M-135 111 C-138.17277078 117.50751483 -139.61980372 124.27141472 -141.1875 131.3125 C-141.59645508 133.10010742 -141.59645508 133.10010742 -142.01367188 134.92382812 C-143.42049823 140.40825599 -143.42049823 140.40825599 -144 146 C-144.86882812 146.12117188 -145.73765625 146.24234375 -146.6328125 146.3671875 C-148.36144531 146.61855469 -148.36144531 146.61855469 -150.125 146.875 C-151.26195312 147.03742188 -152.39890625 147.19984375 -153.5703125 147.3671875 C-156.86078915 147.97431417 -159.85779103 148.86345633 -163 150 C-163 150.66 -163 151.32 -163 152 C-164.485 152.495 -164.485 152.495 -166 153 C-166.66 154.98 -167.32 156.96 -168 159 C-159.09 157.35 -150.18 155.7 -141 154 C-138.67571383 147.02714149 -136.55766154 140.15483099 -134.6875 133.0625 C-134.39810547 132.04220703 -134.10871094 131.02191406 -133.81054688 129.97070312 C-132.00479034 123.05231561 -131.92947163 117.86343571 -134 111 C-134.33 111 -134.66 111 -135 111 Z M19 76 C1.47229394 92.12756386 -1.90844232 115.44161556 -6 138 C-6 138.66 -6 139.32 -6 140 C-6.60996826 140.11069824 -7.21993652 140.22139648 -7.84838867 140.33544922 C-10.62910761 140.84324416 -13.40828446 141.35904294 -16.1875 141.875 C-17.62706055 142.13603516 -17.62706055 142.13603516 -19.09570312 142.40234375 C-20.02705078 142.57636719 -20.95839844 142.75039062 -21.91796875 142.9296875 C-22.77156982 143.08679199 -23.6251709 143.24389648 -24.50463867 143.40576172 C-27.13849345 144.03298044 -29.50488034 144.95755257 -32 146 C-33.32676508 146.35858516 -34.65835921 146.7018576 -36 147 C-36 147.66 -36 148.32 -36 149 C-36.57492187 148.67515625 -37.14984375 148.3503125 -37.7421875 148.015625 C-44.28629807 145.07190744 -52.32550131 147.43936565 -59 149 C-59 148.67 -59 148.34 -59 148 C-60.10408203 147.76216797 -60.10408203 147.76216797 -61.23046875 147.51953125 C-71.31774313 145.10764662 -71.31774313 145.10764662 -75 140 C-76.3125 136.6875 -76.3125 136.6875 -77 134 C-77.48210937 134.42152344 -77.96421875 134.84304687 -78.4609375 135.27734375 C-79.40839844 136.09912109 -79.40839844 136.09912109 -80.375 136.9375 C-81.00148438 137.48277344 -81.62796875 138.02804688 -82.2734375 138.58984375 C-84 140 -84 140 -86 141 C-85.4946875 140.51789063 -84.989375 140.03578125 -84.46875 139.5390625 C-83.8190625 138.90742188 -83.169375 138.27578125 -82.5 137.625 C-81.8503125 136.99851563 -81.200625 136.37203125 -80.53125 135.7265625 C-78.77882569 134.13524093 -78.77882569 134.13524093 -79 132 C-78.34 132 -77.68 132 -77 132 C-77 129.03 -77 126.06 -77 123 C-77.928125 123.804375 -78.85625 124.60875 -79.8125 125.4375 C-81.20829187 126.62504873 -82.60413096 127.81254197 -84 129 C-84.845625 129.73476562 -85.69125 130.46953125 -86.5625 131.2265625 C-95.03360427 138.422188 -102.0100192 143.71305687 -113.45703125 143.2734375 C-116.01712142 142.99815899 -118.48581063 142.55068421 -121 142 C-121.33 140.68 -121.66 139.36 -122 138 C-122.66 138 -123.32 138 -124 138 C-123.505 139.98 -123.505 139.98 -123 142 C-126.04683576 136.1239596 -128.62095135 130.17540289 -131 124 C-136.07449286 133.47238667 -137.40748366 146.40542487 -137 157 C-137.96679688 157.12117188 -138.93359375 157.24234375 -139.9296875 157.3671875 C-147.35329954 158.32270192 -154.68524956 159.38214931 -162 161 C-162 161.33 -162 161.66 -162 162 C-154.81373213 162.20053594 -147.97569987 161.61796863 -140.87109375 160.57421875 C-138.6997966 160.26970573 -136.52840587 159.96585933 -134.35693359 159.66259766 C-133.22825867 159.50301575 -132.09958374 159.34343384 -130.93670654 159.17901611 C-106.66268697 155.76936549 -82.47565512 153.28323338 -58 152 C-56.69981934 151.93087402 -55.39963867 151.86174805 -54.06005859 151.79052734 C-41.79373313 151.17256412 -29.53120403 150.91996995 -17.25 150.875 C-15.61901367 150.86786987 -15.61901367 150.86786987 -13.95507812 150.8605957 C-9.4057386 150.87007935 -4.94203097 150.93170311 -0.42578125 151.5078125 C6.0374579 152.33123832 9.83602513 152.77928056 15.125 148.6875 C15.9809375 147.9553125 16.836875 147.223125 17.71875 146.46875 C21.90296997 143.07524876 26.77338271 140.96003763 31.625 138.6875 C32.50816895 138.26750732 33.39133789 137.84751465 34.30126953 137.41479492 C41.86038401 133.89799143 49.45690688 131.26902248 57.5625 129.3125 C58.59503906 129.06113281 59.62757813 128.80976563 60.69140625 128.55078125 C61.45324219 128.36902344 62.21507812 128.18726563 63 128 C61.35 126.35 59.7 124.7 58 123 C59 123 59 123 62 125.03515625 C66.46796336 127.61677284 70.034233 127.18319823 75 126.4375 C76.15242188 126.30504883 76.15242188 126.30504883 77.328125 126.16992188 C84.74079806 125.20551798 91.08742786 122.70318238 97 118 C99.01041003 115.06550592 99.01041003 115.06550592 100 112 C99.67 111.01 99.34 110.02 99 109 C98.21625 109.70125 97.4325 110.4025 96.625 111.125 C86.63417065 119.45069112 78.81657703 121.54838655 66 121 C62.00812737 120.49309554 59.973852 120.06515063 57.25 117.0859375 C55.73803275 115.1049804 54.33524862 113.10313885 53 111 C52.53851562 111.35191406 52.07703125 111.70382813 51.6015625 112.06640625 C30.02194956 128.40038205 30.02194956 128.40038205 17 128 C14.34829965 127.28097244 12.42231469 126.34573039 10 125 C10.21256043 128.71980755 10.97601775 129.97426295 13.5625 132.75 C17.09171896 135.40531712 20.61594582 136.25788554 25 136 C32.59745825 134.65927207 38.73467398 130.27447476 45 126 C41.9337309 128.53629667 38.92265865 130.76611688 35.4375 132.6875 C34.69371094 133.10386719 33.94992187 133.52023438 33.18359375 133.94921875 C28.33731833 136.28132624 23.30623976 136.68052295 18 136 C14.1973971 133.9949912 12.38209159 132.57313738 10 129 C6.58223242 110.54852272 11.02472129 96.40919742 19.21484375 80.00390625 C19.60349609 79.01197266 19.60349609 79.01197266 20 78 C19.67 77.34 19.34 76.68 19 76 Z M93.4375 121.5 C92.2309375 122.7375 92.2309375 122.7375 91 124 C92.65 123.67 94.3 123.34 96 123 C96.33 121.68 96.66 120.36 97 119 C95.52263018 118.88361269 95.52263018 118.88361269 93.4375 121.5 Z M-36 121 C-37.82402942 122.79825659 -37.82402942 122.79825659 -39.625 125.125 C-45.76533958 132.27934061 -52.64079881 137.29972999 -62.2578125 138.21484375 C-67.07102672 138.41340869 -70.04218373 137.99834566 -74 135 C-74.66 134.67 -75.32 134.34 -76 134 C-74.74568359 138.4946338 -73.21374355 141.59148411 -70 145 C-63.01988424 147.32670525 -57.27507095 146.48429342 -50.6875 143.3125 C-46.45918522 141.00614648 -43.08546667 138.76041251 -40 135 C-38.948125 133.88625 -38.948125 133.88625 -37.875 132.75 C-35.37102772 129.07750733 -34.2208869 125.24535673 -33 121 C-33.99 121 -34.98 121 -36 121 Z M-238 125 C-238.17015625 125.61746094 -238.3403125 126.23492187 -238.515625 126.87109375 C-244.0825395 146.32568326 -254.43225674 163.27415968 -272 174 C-279.58956269 178.12084117 -288.60862131 177.82609428 -297 177 C-300.09669367 175.97954888 -302.23216705 174.77141309 -305 173 C-305.66 173 -306.32 173 -307 173 C-307.66 171.68 -308.32 170.36 -309 169 C-309.33 169.66 -309.66 170.32 -310 171 C-306.15929235 177.45238884 -301.34925045 182.72746582 -294 185 C-279.46165407 186.35607131 -267.61902391 183.21020188 -256 174 C-244.97240633 162.81486927 -235.64492612 147.77997656 -235.75 131.8125 C-235.81341112 129.54102306 -235.88973191 127.26968487 -236 125 C-236.66 125 -237.32 125 -238 125 Z M-125 135 C-124 138 -124 138 -124 138 Z M-36 137 C-36.99 138.485 -36.99 138.485 -38 140 C-38.66 140 -39.32 140 -40 140 C-41.38232443 141.62626404 -42.71937515 143.2925002 -44 145 C-40.98968256 145.93423645 -40.13349732 146.04449911 -37 145 C-36.19787372 143.12612784 -36.19787372 143.12612784 -35.8125 140.9375 C-35.57466797 139.83728516 -35.57466797 139.83728516 -35.33203125 138.71484375 C-35.22246094 138.14894531 -35.11289062 137.58304688 -35 137 C-35.33 137 -35.66 137 -36 137 Z M-316.125 122.75 C-319.89556923 126.15256167 -323.48796916 128.69598425 -328 131 C-328 131.99 -328 132.98 -328 134 C-331 136 -331 136 -333.625 135.875 C-338.33524865 136.04945365 -341.80719195 137.98066965 -346 140 C-347.66194738 140.67834587 -349.32598903 141.35199575 -351 142 C-348.18234611 147.18795515 -345.03618423 151.8120734 -341.375 156.4375 C-340.88515625 157.07365234 -340.3953125 157.70980469 -339.890625 158.36523438 C-338.64389436 159.95089862 -337.32722138 161.48106887 -336 163 C-335.34 163 -334.68 163 -334 163 C-333.74992187 163.57621094 -333.49984375 164.15242188 -333.2421875 164.74609375 C-331.83134724 167.3060146 -330.21090765 169.01988477 -328.125 171.0625 C-327.10792969 172.06990234 -327.10792969 172.06990234 -326.0703125 173.09765625 C-322.54186926 176.682838 -322.54186926 176.682838 -318 178 C-318 178.66 -318 179.32 -318 180 C-315.36315253 182.39820305 -315.36315253 182.39820305 -312 183 C-312 183.66 -312 184.32 -312 185 C-309.67767336 186.66926764 -307.37055667 188.19412769 -304.9375 189.6875 C-304.21522217 190.13303223 -303.49294434 190.57856445 -302.7487793 191.03759766 C-291.71097987 197.7211241 -280.46739285 202.56369643 -268 206 C-266.62489999 206.41633651 -265.24987899 206.8329342 -263.875 207.25 C-261.01139404 208.12621095 -261.01139404 208.12621095 -258 208 C-266.24028961 201.20521318 -266.24028961 201.20521318 -276 198 C-276 197.34 -276 196.68 -276 196 C-272.535 195.505 -272.535 195.505 -269 195 C-269.75150023 191.72226496 -269.75150023 191.72226496 -273 190 C-266.97981621 187.13324581 -260.75743514 185.39005854 -254.33447266 183.640625 C-251.74394618 182.92973382 -249.15940599 182.19881153 -246.57421875 181.46875 C-220.09347476 174.07712926 -193.20754084 168.00541894 -166 164 C-166.66 163.67 -167.32 163.34 -168 163 C-168.99444068 159.65506316 -169.10348268 157.31044803 -168 154 C-170.475 154.495 -170.475 154.495 -173 155 C-173.33 154.34 -173.66 153.68 -174 153 C-173.39456452 151.63777017 -172.70885894 150.31138904 -172 149 C-170.12177246 144.95458683 -169 142.49955584 -169 138 C-169.66 138 -170.32 138 -171 138 C-172.14793273 139.18169546 -173.29359238 140.36571177 -174.42578125 141.5625 C-176.83502907 143.76250794 -179.59782735 145.28194639 -182.42578125 146.88671875 C-182.94527344 147.25410156 -183.46476563 147.62148437 -184 148 C-184 148.66 -184 149.32 -184 150 C-185.04027344 150.41378906 -185.04027344 150.41378906 -186.1015625 150.8359375 C-188.08425966 151.63222288 -190.05799827 152.45108454 -192.0234375 153.2890625 C-201.20910127 156.95048093 -210.86777968 159.38450351 -220.6171875 156.125 C-222.75 155.0625 -222.75 155.0625 -226 153 C-227.485 152.505 -227.485 152.505 -229 152 C-229.69937532 150.68352881 -230.36729133 149.34977849 -231 148 C-231.66 147.67 -232.32 147.34 -233 147 C-233.73075648 144.6859378 -234.40138258 142.35171131 -235 140 C-235.33 140 -235.66 140 -236 140 C-235.89558594 141.09054688 -235.89558594 141.09054688 -235.7890625 142.203125 C-235.32086221 150.89827316 -237.58299021 156.58573357 -242 164 C-242.66 164 -243.32 164 -244 164 C-245.3415249 165.59089127 -245.3415249 165.59089127 -246.6875 167.625 C-249.31851584 171.28893317 -252.12395745 174.01813153 -255.6796875 176.7734375 C-256.11539063 177.17820313 -256.55109375 177.58296875 -257 178 C-257 178.66 -257 179.32 -257 180 C-258.010625 180.2475 -259.02125 180.495 -260.0625 180.75 C-262.91129264 181.53845372 -265.13372353 182.60512879 -267.625 184.1875 C-271.39306454 186.21109022 -272.08198588 186.10508091 -276 185 C-278.00240549 185.31856451 -280.00211562 185.65421232 -282 186 C-290.61468338 186.73281806 -297.6616833 185.258295 -304.375 179.625 C-311.25156663 173.42760044 -314.42789515 164.51950789 -315.22460938 155.44042969 C-315.75517873 144.57144733 -315.35647469 134.41724529 -312 124 C-311.64623796 122.33754961 -311.30693088 120.67173034 -311 119 C-313.00737111 119 -314.75894915 121.48119344 -316.125 122.75 Z M69.875 142.1875 C68.94792236 142.41236084 68.02084473 142.63722168 67.06567383 142.86889648 C59.76588455 144.69495609 52.89815522 146.96930163 46 150 C45.29359375 150.26941406 44.5871875 150.53882813 43.859375 150.81640625 C36.65094398 153.84922174 28.87880124 160.58365719 24.625 167.109375 C23.61524902 170.16387172 24.40467245 172.90429675 25 176 C27.21872064 173.96854519 27.21872064 173.96854519 28.8125 170.6875 C36.42253243 157.24496097 53.54299033 151.25237237 67.6875 147.25 C74.08381145 145.66079299 80.54528387 144.328635 87 143 C87 142.01 87 141.02 87 140 C80.98915177 139.71337917 75.70053465 140.75625136 69.875 142.1875 Z M-237 145 C-239.60759567 149.84468739 -239.60759567 149.84468739 -239 155 C-236.5943192 151.05924297 -236.5943192 151.05924297 -236.3125 146.625 C-236.539375 146.08875 -236.76625 145.5525 -237 145 Z M-389 146 C-391.44195183 152.04740894 -393.02318743 157.97971223 -394.33984375 164.359375 C-394.54807266 165.34383606 -394.75630157 166.32829712 -394.97084045 167.34259033 C-395.63224691 170.47719548 -396.28489988 173.61355105 -396.9375 176.75 C-397.37119419 178.80870982 -397.8054347 180.86730463 -398.24023438 182.92578125 C-399.50889166 188.94736793 -400.75924939 194.97260551 -402 201 C-402.20151672 201.97783447 -402.40303345 202.95566895 -402.61065674 203.96313477 C-403.18318857 206.75067802 -403.75087705 209.53915354 -404.31640625 212.328125 C-404.48768539 213.16333679 -404.65896454 213.99854858 -404.83543396 214.85906982 C-405.45790546 217.95515501 -406 220.83322676 -406 224 C-407.2375 224.37125 -407.2375 224.37125 -408.5 224.75 C-411.08273201 225.67240429 -413.18965377 226.58414252 -415.57421875 227.85546875 C-421.16345957 230.6880543 -427.07283711 232.50756284 -433.01757812 234.44335938 C-433.87416016 234.73146484 -434.73074219 235.01957031 -435.61328125 235.31640625 C-436.38454346 235.56849854 -437.15580566 235.82059082 -437.95043945 236.08032227 C-440.22911907 237.10281019 -441.44345532 238.05409992 -443 240 C-443.74386068 242.30988315 -444.42190703 244.64315944 -445 247 C-432.78626789 245.03288449 -421.12152576 241.00086752 -409.6875 236.375 C-408.96425537 236.0860083 -408.24101074 235.7970166 -407.49584961 235.49926758 C-402.67884834 233.51467794 -402.67884834 233.51467794 -399 230 C-398.12965074 227.215294 -398.12965074 227.215294 -397.60546875 223.98046875 C-397.25995972 222.12675659 -397.25995972 222.12675659 -396.9074707 220.2355957 C-396.7315892 219.24663803 -396.7315892 219.24663803 -396.55215454 218.23770142 C-396.18340577 216.16448099 -395.80109803 214.09418681 -395.41479492 212.02416992 C-394.87648295 209.13758301 -394.34267419 206.2502173 -393.81152344 203.36230469 C-392.54235279 196.49976411 -391.17882889 189.65623204 -389.8125 182.8125 C-389.57490967 181.60424561 -389.33731934 180.39599121 -389.0925293 179.15112305 C-387.78703146 172.59258321 -386.30995283 166.15357433 -384.4597168 159.7253418 C-383.55700545 154.37379277 -384.91467352 150.37087917 -388 146 C-388.33 146 -388.66 146 -389 146 Z M67.8125 148.3125 C67.10158203 148.52583984 66.39066406 148.73917969 65.65820312 148.95898438 C61.79653439 150.17597311 59.92736131 151.07263869 57 154 C62.28 153.01 67.56 152.02 73 151 C72 152 72 152 68.5625 152.3125 C64.21741016 152.80819652 60.58208225 154.18899395 56.578125 155.90234375 C54.87757539 156.62636563 53.15801416 157.30745241 51.421875 157.94140625 C45.71396729 160.03372211 40.26338944 162.53415911 36 167 C36 167.99 36 168.98 36 170 C39.3 169.67 42.6 169.34 46 169 C42.37 169.33 38.74 169.66 35 170 C34.34 169.01 33.68 168.02 33 167 C29.87729874 169.51830747 29.05476902 170.7261549 28.25 174.75 C28.1675 175.8225 28.085 176.895 28 178 C40.67751093 180.75598064 52.49411917 174.70349231 63.1640625 168.3671875 C64.07285156 167.69042969 64.07285156 167.69042969 65 167 C65 166.34 65 165.68 65 165 C65.639375 164.731875 66.27875 164.46375 66.9375 164.1875 C69.33131686 163.11332248 69.33131686 163.11332248 70 160 C70.58265625 159.71382812 71.1653125 159.42765625 71.765625 159.1328125 C74.80104426 157.59387616 76.52213957 155.43048696 78.75 152.875 C79.94882812 151.50988281 79.94882812 151.50988281 81.171875 150.1171875 C81.77515625 149.41851562 82.3784375 148.71984375 83 148 C82.505 147.01 82.505 147.01 82 146 C76.81498914 145.69882982 72.68083328 146.74655685 67.8125 148.3125 Z M-242 156 C-241 158 -241 158 -241 158 Z M-24.375 164.1875 C-25.16400696 164.25180206 -25.95301392 164.31610413 -26.76593018 164.38235474 C-48.53373476 166.19227991 -70.02506593 169.57530839 -91.48339844 173.62963867 C-96.24451244 174.52560029 -100.99508282 175.2969951 -105.79711914 175.93579102 C-131.38195863 179.38914061 -156.68084377 186.14951167 -181.52197266 193.03857422 C-184.96264312 193.98967349 -188.40825929 194.92057146 -191.85546875 195.84765625 C-205.21523064 199.46978962 -218.02274162 203.67153517 -230.796875 209 C-231.61099854 209.33257812 -232.42512207 209.66515625 -233.26391602 210.0078125 C-234.8412436 210.65355233 -236.41253784 211.31429907 -237.97631836 211.9921875 C-243.27036246 214.15551256 -243.27036246 214.15551256 -246.9140625 213.37890625 C-249.46082094 211.69537492 -250.26725339 209.73748752 -251.66015625 207.0859375 C-254.5854457 202.53169679 -258.45447384 198.90552099 -263 196 C-266.48356926 195.30896588 -269.51103084 195.39870957 -273 196 C-270.21309774 198.98088618 -267.45366854 201.12446899 -263.9375 203.1875 C-263.08027344 203.69667969 -262.22304688 204.20585937 -261.33984375 204.73046875 C-258.95765708 206.11104405 -258.95765708 206.11104405 -256 207 C-256 207.66 -256 208.32 -256 209 C-254.9790625 209.9590625 -254.9790625 209.9590625 -253.9375 210.9375 C-249.73435131 214.92324445 -246.98576486 220.08682497 -244 225 C-240.19064904 224.35475943 -236.85004479 223.24596266 -233.26953125 221.8046875 C-225.16672115 218.63189355 -216.9451068 215.86495585 -208.6875 213.125 C-207.90030579 212.86298798 -207.11311157 212.60097595 -206.30206299 212.33102417 C-193.78482903 208.17069746 -181.22122103 204.24746299 -168.51367188 200.70410156 C-166.15573431 200.04362255 -163.80392192 199.36507816 -161.453125 198.6796875 C-114.14550937 185.00146579 -64.71684326 176.80296318 -15.83081055 171.29174805 C-14.60531494 171.14906494 -13.37981934 171.00638184 -12.1171875 170.859375 C-11.05097168 170.74045898 -9.98475586 170.62154297 -8.88623047 170.49902344 C-5.99407948 169.99897635 -3.62890642 169.301158 -1 168 C-0.02266343 166.01224124 -0.02266343 166.01224124 0 164 C-1.12991537 162.64151921 -1.12991537 162.64151921 -4.10009766 162.9074707 C-10.87642266 163.06824616 -17.62149223 163.63604811 -24.375 164.1875 Z M35 164 C35 167 35 167 35 167 Z M-249 166 C-248 168 -248 168 -248 168 Z M-372 174 C-371 176 -371 176 -371 176 Z M-261 178 C-261.33 178.66 -261.66 179.32 -262 180 C-261.01 179.67 -260.02 179.34 -259 179 C-259.66 178.67 -260.32 178.34 -261 178 Z M-368 180 C-367 182 -367 182 -367 182 Z M-367 182 C-365.88145414 185.72614153 -365.88145414 185.72614153 -363 188 C-364.11854586 184.27385847 -364.11854586 184.27385847 -367 182 Z M-363 188 C-362.34 189.32 -361.68 190.64 -361 192 C-361 191.01 -361 190.02 -361 189 C-361.66 188.67 -362.32 188.34 -363 188 Z M-266 212 C-263.03 212 -260.06 212 -257 212 C-257.66 211.34 -258.32 210.68 -259 210 C-263.04622502 209.63019987 -263.04622502 209.63019987 -266 212 Z " fill="#fff" transform="translate(497,51)"/>
<path d="M0 0 C5.05810318 4.2366015 8.01324149 8.6826925 8.68359375 15.41015625 C8.77950268 22.7232119 6.76559807 28.84619284 3.68359375 35.41015625 C3.27109375 36.29703125 2.85859375 37.18390625 2.43359375 38.09765625 C-2.49764694 44.6139386 -9.48550701 49.09340742 -16.31640625 53.41015625 C-13.11401082 64.28921589 -9.83582753 75.12196731 -6.14599609 85.84716797 C-4.31640625 91.20832023 -4.31640625 91.20832023 -4.31640625 93.41015625 C-8.65636373 94.15087381 -12.99793738 94.8809567 -17.34130859 95.60131836 C-18.81803317 95.84776318 -20.29428036 96.09708676 -21.77001953 96.34936523 C-23.89366036 96.71188574 -26.01881349 97.06395369 -28.14453125 97.4140625 C-29.42231445 97.62877197 -30.70009766 97.84348145 -32.01660156 98.06469727 C-34.89993914 98.366556 -36.63306454 98.38242434 -39.31640625 97.41015625 C-40.46162337 92.78512381 -41.60077712 88.15865578 -42.734375 83.53076172 C-43.12073773 81.95711151 -43.50874471 80.38386403 -43.8984375 78.81103516 C-44.45877488 76.54824415 -45.01315375 74.2840635 -45.56640625 72.01953125 C-45.74139648 71.31834167 -45.91638672 70.6171521 -46.09667969 69.89471436 C-46.89769427 66.59204018 -47.31640625 63.8373067 -47.31640625 60.41015625 C-47.97640625 60.41015625 -48.63640625 60.41015625 -49.31640625 60.41015625 C-49.42082031 61.29316406 -49.52523437 62.17617188 -49.6328125 63.0859375 C-50.47895231 68.99404555 -51.91148268 74.78692594 -53.25390625 80.59765625 C-53.51880859 81.77263672 -53.78371094 82.94761719 -54.05664062 84.15820312 C-54.31638672 85.28677734 -54.57613281 86.41535156 -54.84375 87.578125 C-55.19554321 89.11376099 -55.19554321 89.11376099 -55.55444336 90.68041992 C-56.88685592 95.45379539 -56.88685592 95.45379539 -58.31640625 97.41015625 C-60.63549805 98.04785156 -60.63549805 98.04785156 -63.515625 98.23828125 C-65.08280273 98.35429687 -65.08280273 98.35429687 -66.68164062 98.47265625 C-68.32616211 98.56546875 -68.32616211 98.56546875 -70.00390625 98.66015625 C-71.61942383 98.77617187 -71.61942383 98.77617187 -73.26757812 98.89453125 C-78.62567059 99.26246893 -83.94637197 99.50234568 -89.31640625 99.41015625 C-91.01382697 96.01531481 -89.19561125 92.43246575 -88.25390625 88.91015625 C-85.79453768 79.42439717 -83.55221543 69.89937016 -81.37280273 60.34570312 C-81.13376221 59.29962891 -80.89472168 58.25355469 -80.6484375 57.17578125 C-80.43936768 56.25571289 -80.23029785 55.33564453 -80.01489258 54.38769531 C-79.48082686 52.11105586 -78.92032278 49.84060308 -78.34814453 47.57324219 C-77.3022274 43.41194818 -76.3796456 39.22941239 -75.4765625 35.03515625 C-75.13245028 33.45696825 -74.78804018 31.87884517 -74.44335938 30.30078125 C-73.90964599 27.85281584 -73.37769547 25.4045272 -72.85083008 22.95507812 C-72.33572427 20.56387497 -71.81300105 18.17443748 -71.2890625 15.78515625 C-71.13583023 15.06408691 -70.98259796 14.34301758 -70.82472229 13.60009766 C-69.73449251 8.66818584 -68.17656827 4.1075684 -66.31640625 -0.58984375 C-60.80538287 -1.47113747 -55.29271998 -2.34077998 -49.77832031 -3.20068359 C-47.67196059 -3.5336405 -45.56811053 -3.88240845 -43.46484375 -4.234375 C-29.78534801 -6.41994961 -11.95535405 -8.52533563 0 0 Z M-39.31640625 17.41015625 C-40.32474695 20.99119599 -41.32161711 24.5753305 -42.31640625 28.16015625 C-42.60257813 29.1759375 -42.88875 30.19171875 -43.18359375 31.23828125 C-43.45429687 32.21796875 -43.725 33.19765625 -44.00390625 34.20703125 C-44.25527344 35.10776367 -44.50664063 36.00849609 -44.765625 36.93652344 C-45.46129856 39.63851882 -45.46129856 39.63851882 -45.31640625 43.41015625 C-37.94177767 43.41015625 -34.46826425 41.68612456 -29.203125 36.53125 C-26.03024397 32.96422226 -24.58164137 30.03472135 -23.81640625 25.34765625 C-24.141108 22.26218196 -24.141108 22.26218196 -26.19140625 19.53515625 C-29.6047838 17.21405952 -30.55253084 17.16790278 -34.51171875 17.27734375 C-35.41164551 17.29651855 -36.31157227 17.31569336 -37.23876953 17.33544922 C-37.92438965 17.36010254 -38.61000977 17.38475586 -39.31640625 17.41015625 Z " fill="#fff" transform="translate(598.31640625,266.58984375)"/>
<path d="M0 0 C6.84365942 5.26214149 9.52627533 12.33934685 11.046875 20.6796875 C12.22324074 33.19322978 11.17204719 44.8062478 7.046875 56.6796875 C6.69625 57.79730469 6.345625 58.91492188 5.984375 60.06640625 C0.97535206 74.76301868 -9.09920209 86.48263639 -22.890625 93.5546875 C-28.44139641 96.25546407 -33.79217493 98.09601855 -39.953125 98.6796875 C-40.96246094 98.78410156 -40.96246094 98.78410156 -41.9921875 98.890625 C-49.38224212 99.27337683 -56.43436504 97.25903854 -62.265625 92.6796875 C-70.21820612 85.04842279 -72.90629922 73.63287585 -73.203125 62.9296875 C-72.62795142 41.1745926 -66.54941642 22.11546821 -50.953125 6.6796875 C-37.50182003 -5.73899204 -15.6674182 -10.5911747 0 0 Z M-32.953125 17.6796875 C-32.953125 18.3396875 -32.953125 18.9996875 -32.953125 19.6796875 C-33.613125 19.6796875 -34.273125 19.6796875 -34.953125 19.6796875 C-38.56531492 27.56289444 -41.8429657 35.00026025 -42.953125 43.6796875 C-43.06269531 44.47632813 -43.17226562 45.27296875 -43.28515625 46.09375 C-44.37812633 55.27469863 -45.44191716 65.89240885 -41.953125 74.6796875 C-40.41785184 76.45305114 -39.22372801 77.53972043 -37.140625 78.6171875 C-33.57470825 78.71907084 -31.68052767 76.82679173 -28.953125 74.6796875 C-18.93515772 63.89110735 -17.77744309 46.57093879 -17.765625 32.5546875 C-17.74725586 31.39646484 -17.74725586 31.39646484 -17.72851562 30.21484375 C-17.71502186 24.93428182 -18.1402963 20.26944278 -21.265625 15.8046875 C-25.49927396 12.98225486 -29.21781792 14.90488796 -32.953125 17.6796875 Z " fill="#fff" transform="translate(195.953125,314.3203125)"/>
<path d="M0 0 C0.83442627 -0.00064453 1.66885254 -0.00128906 2.52856445 -0.00195312 C9.11997855 0.05401951 15.4319461 0.74713665 21.875 2.1875 C21.875 5.24075884 21.34655686 7.13247577 20.37890625 10.00390625 C20.06759766 10.93267578 19.75628906 11.86144531 19.43554688 12.81835938 C19.10619141 13.78580078 18.77683594 14.75324219 18.4375 15.75 C18.11201172 16.72130859 17.78652344 17.69261719 17.45117188 18.69335938 C15.02948428 25.87853145 15.02948428 25.87853145 13.875 28.1875 C13.25496094 27.9709375 12.63492188 27.754375 11.99609375 27.53125 C2.56461026 24.56589275 -7.44127939 23.90464571 -17.125 26.1875 C-17.62 27.6725 -17.62 27.6725 -18.125 29.1875 C-18.785 29.1875 -19.445 29.1875 -20.125 29.1875 C-20.15068371 34.52132093 -20.15068371 34.52132093 -17.62890625 39.03125 C-13.10370634 43.0374632 -8.07309219 46.38883089 -3.03125 49.70703125 C-2.4021875 50.19558594 -1.773125 50.68414062 -1.125 51.1875 C-1.125 51.8475 -1.125 52.5075 -1.125 53.1875 C-0.25875 53.4659375 -0.25875 53.4659375 0.625 53.75 C3.95502989 55.8775191 5.51196031 58.57641381 6.875 62.1875 C8.73506533 71.05961017 8.09259355 78.98234798 3.3125 86.75 C-5.3974006 98.83419624 -17.84085537 105.20515027 -32.3046875 107.74609375 C-46.39343782 109.37393504 -59.61866336 108.46673537 -73.125 104.1875 C-73.4977378 98.07460013 -72.18653797 93.10739756 -70.3125 87.3125 C-70.05146484 86.44625 -69.79042969 85.58 -69.52148438 84.6875 C-69.26044922 83.86507812 -68.99941406 83.04265625 -68.73046875 82.1953125 C-68.49481201 81.44910645 -68.25915527 80.70290039 -68.01635742 79.93408203 C-67.125 78.1875 -67.125 78.1875 -64.125 77.1875 C-61.7421875 78.11328125 -61.7421875 78.11328125 -59 79.5 C-51.1084823 83.22770375 -43.80523745 85.43491608 -35.125 83.1875 C-31.6081762 81.4290881 -29.69083961 80.38205028 -28 76.8125 C-28.18087845 73.01405263 -29.84758968 71.19895166 -32.125 68.1875 C-34.94249132 65.72350968 -34.94249132 65.72350968 -38.0625 63.5625 C-46.47739362 57.49867021 -46.47739362 57.49867021 -49.125 55.1875 C-49.125 54.5275 -49.125 53.8675 -49.125 53.1875 C-49.785 53.1875 -50.445 53.1875 -51.125 53.1875 C-56.20364403 46.26207632 -57.01212754 40.62552707 -56.125 32.1875 C-52.84659188 21.61693175 -44.70155459 13.36053008 -35.3984375 7.7578125 C-24.33112162 2.44867052 -12.21112384 -0.00974065 0 0 Z " fill="#fff" transform="translate(674.125,254.8125)"/>
<path d="M0 0 C0.04345047 0.63495392 0.08690094 1.26990784 0.13166809 1.92410278 C2.77135345 41.41796951 2.77135345 41.41796951 6.484375 80.8203125 C6.88798684 84.56757144 7.13061364 88.22526577 7 92 C-2.8810232 95.73036382 -12.62052767 95.29041011 -23 95 C-23.33 90.38 -23.66 85.76 -24 81 C-32.415 81.99 -32.415 81.99 -41 83 C-41.45375 84.835625 -41.9075 86.67125 -42.375 88.5625 C-43.49149268 93.07922037 -44.72014897 97.5205214 -46 102 C-53.92 103.32 -61.84 104.64 -70 106 C-69.3153351 101.20734572 -68.75807485 97.79732942 -67.20703125 93.4140625 C-66.64314697 91.80168701 -66.64314697 91.80168701 -66.06787109 90.15673828 C-65.65359863 88.99126465 -65.23932617 87.82579102 -64.8125 86.625 C-64.14233006 84.71182497 -63.47220593 82.79863355 -62.80340576 80.88497925 C-62.32075519 79.50429971 -61.83737726 78.12387425 -61.35333252 76.74368286 C-59.06757966 70.21947644 -56.82748694 63.68001414 -54.60517883 57.13394165 C-53.09389341 52.68365606 -51.5685584 48.23944587 -50.00805664 43.80615234 C-47.41443978 36.39988104 -44.90618859 29.12159567 -43.2421875 21.4453125 C-40.52206461 9.63261399 -40.52206461 9.63261399 -37 6 C-29.74014861 2.41810257 -21.7036616 1.66180148 -13.71386719 1.20751953 C-11.10620133 1.09379329 -11.10620133 1.09379329 -9.07519531 0.47607422 C-6.04798651 -0.21840309 -3.0921482 -0.05946439 0 0 Z M-25 24 C-26.43062171 29.19437434 -27.85459666 34.39050775 -29.27246094 39.58837891 C-29.75566579 41.35613033 -30.24067857 43.12338861 -30.72753906 44.89013672 C-31.42729741 47.43068794 -32.12052047 49.97294559 -32.8125 52.515625 C-33.03123779 53.30430969 -33.24997559 54.09299438 -33.4753418 54.90557861 C-34.42635511 58.42289274 -35 61.32998984 -35 65 C-33.18667846 64.69230293 -31.37435655 64.37870936 -29.5625 64.0625 C-28.55316406 63.88847656 -27.54382813 63.71445312 -26.50390625 63.53515625 C-24.0712562 63.25248903 -24.0712562 63.25248903 -23 62 C-22.91138008 59.1883662 -22.88477645 56.40141745 -22.90234375 53.58984375 C-22.9037587 52.74780899 -22.90517365 51.90577423 -22.90663147 51.03822327 C-22.91224737 48.33794665 -22.92480252 45.63775172 -22.9375 42.9375 C-22.94251295 41.11132932 -22.94707621 39.28515734 -22.95117188 37.45898438 C-22.96222196 32.97262458 -22.97949721 28.48632616 -23 24 C-23.66 24 -24.32 24 -25 24 Z " fill="#fff" transform="translate(273,294)"/>
<path d="M0 0 C-0.11573266 1.85476817 -0.24308115 3.70881274 -0.375 5.5625 C-0.44460938 6.59503906 -0.51421875 7.62757813 -0.5859375 8.69140625 C-1.04047293 12.32340158 -1.91715295 15.50935891 -3 19 C-7.24956641 19.50373171 -11.49971856 20.00234046 -15.75 20.5 C-16.9565625 20.64308594 -18.163125 20.78617187 -19.40625 20.93359375 C-20.56640625 21.06894531 -21.7265625 21.20429688 -22.921875 21.34375 C-23.99018555 21.46943359 -25.05849609 21.59511719 -26.15917969 21.72460938 C-29 22 -29 22 -33 22 C-33.185625 23.9490625 -33.185625 23.9490625 -33.375 25.9375 C-33.83892154 30.80867619 -34.9105864 35.09763879 -36 40 C-28.74 39.67 -21.48 39.34 -14 39 C-16.00164474 53.01151316 -16.00164474 53.01151316 -18 58 C-20.30026386 59.15013193 -22.01247936 59.29232399 -24.5703125 59.53515625 C-25.37742676 59.61386963 -26.18454102 59.69258301 -27.01611328 59.77368164 C-28.0420459 59.8689917 -29.06797852 59.96430176 -30.125 60.0625 C-35.013125 60.5265625 -35.013125 60.5265625 -40 61 C-41.32 67.6 -42.64 74.2 -44 81 C-37.4937599 80.34673689 -37.4937599 80.34673689 -30.98852539 79.68359375 C-25.29428813 79.12660286 -19.72114077 78.90611461 -14 79 C-16.23207949 93.0489709 -16.23207949 93.0489709 -19 99 C-22.41060031 100.70530015 -26.31361211 100.47467088 -30.07421875 100.71875 C-31.44825615 100.81295227 -31.44825615 100.81295227 -32.85005188 100.90905762 C-35.79561189 101.11004704 -38.74153181 101.30509399 -41.6875 101.5 C-43.62307329 101.63112105 -45.55862054 101.7626272 -47.49414062 101.89453125 C-52.99574688 102.26829552 -58.49782424 102.63473204 -64 103 C-65.58024619 103.10538931 -67.16048739 103.21085339 -68.74072266 103.31640625 C-72.16044702 103.54479444 -75.58020871 103.77261581 -79 104 C-80.39324193 101.21351614 -79.60767445 99.91240777 -78.7890625 96.92578125 C-76.72893001 89.06438098 -75.04509409 81.13825622 -73.375 73.1875 C-73.20725067 72.39316559 -73.03950134 71.59883118 -72.8666687 70.78042603 C-69.29938849 53.85761967 -66.05771762 36.87398646 -62.88232422 19.8737793 C-62.60434746 18.39675537 -62.60434746 18.39675537 -62.320755 16.88989258 C-61.97086561 15.03008905 -61.6241965 13.169676 -61.28117371 11.30859375 C-60.11256663 5.11256663 -60.11256663 5.11256663 -59 4 C-57.48594864 3.7895748 -55.96317082 3.64141286 -54.43945312 3.51928711 C-53.46754028 3.43927963 -52.49562744 3.35927216 -51.4942627 3.27684021 C-49.90382141 3.15333946 -49.90382141 3.15333946 -48.28125 3.02734375 C-47.19420776 2.93997452 -46.10716553 2.85260529 -44.98718262 2.7625885 C-42.6771776 2.57803914 -40.36698934 2.39577184 -38.05664062 2.21557617 C-34.5424547 1.94081932 -31.02903694 1.65751066 -27.515625 1.37304688 C-25.27087435 1.19479517 -23.0260838 1.01704519 -20.78125 0.83984375 C-19.21509949 0.71330666 -19.21509949 0.71330666 -17.61730957 0.58421326 C-11.72338315 0.12992994 -5.91140918 -0.08244376 0 0 Z " fill="#fff" transform="translate(514,266)"/>
<path d="M0 0 C-0.46247533 7.19270839 -1.25077067 14.0030827 -3 21 C-6.81711646 21.95427911 -9.85937165 21.92640171 -13.75 21.4375 C-20.3231766 20.82227657 -25.99033543 20.94461932 -31.5625 24.75 C-33.56786022 27.8888247 -33.80499116 29.34094926 -33 33 C-29.16356429 37.73119548 -23.52329195 40.53844989 -18.359375 43.58203125 C-11.56097562 47.66782425 -7.45594841 52.34077106 -5 60 C-3.67107807 68.7451637 -5.01424978 75.69306028 -10 83 C-12.375 85.75 -12.375 85.75 -15 88 C-15.48984375 88.47953125 -15.9796875 88.9590625 -16.484375 89.453125 C-27.31990002 99.66947717 -42.35003171 102.3079181 -56.74609375 102.234375 C-62.31231494 101.8334467 -67.6268997 100.45593686 -73 99 C-72.688288 96.47906702 -72.37565098 93.9582543 -72.0625 91.4375 C-71.97548828 90.73302734 -71.88847656 90.02855469 -71.79882812 89.30273438 C-71.62337812 87.89263619 -71.44451629 86.48295824 -71.26220703 85.07373047 C-71.00799897 83.0632619 -70.78281617 81.04918949 -70.55859375 79.03515625 C-70.28208984 77.53275391 -70.28208984 77.53275391 -70 76 C-69.01 75.505 -69.01 75.505 -68 75 C-66.23065289 75.59077194 -64.48370418 76.24911746 -62.75 76.9375 C-55.45799748 79.45895147 -47.31773761 80.77892117 -39.81640625 78.26953125 C-37.28540834 76.78249411 -36.10096143 75.23161739 -34.9375 72.5625 C-35.02292001 69.06027968 -35.85422194 67.80633307 -38 65 C-40.78851407 63.00286645 -43.76091582 61.36392391 -46.75 59.6875 C-54.54694408 55.11103282 -60.67212863 51.14071594 -64.5 42.6875 C-65.87642982 32.53633007 -63.59949515 24.41167096 -57.75 16.0625 C-49.92632632 6.62806998 -37.81389799 2.03325247 -26 0 C-25.29617188 -0.12890625 -24.59234375 -0.2578125 -23.8671875 -0.390625 C-15.97175646 -1.6053067 -7.84716422 -1.39505142 0 0 Z " fill="#fff" transform="translate(361,283)"/>
<path d="M0 0 C-0.47458158 3.43814934 -0.95545262 6.8753901 -1.4375 10.3125 C-1.63956055 11.77719727 -1.63956055 11.77719727 -1.84570312 13.27148438 C-1.97783203 14.20927734 -2.10996094 15.14707031 -2.24609375 16.11328125 C-2.36654053 16.97735596 -2.4869873 17.84143066 -2.61108398 18.73168945 C-3 21 -3 21 -4 24 C-10.6 24.99 -17.2 25.98 -24 27 C-25.49646339 34.28695819 -26.98962113 41.5745839 -28.47998047 48.86279297 C-28.98530141 51.33171995 -29.49145849 53.80047598 -29.99853516 56.26904297 C-33.191371 71.81594067 -36.22134991 87.37340115 -39 103 C-54.345 104.98 -54.345 104.98 -70 107 C-68.87521621 95.75216208 -68.87521621 95.75216208 -68.10791016 91.85180664 C-67.93748199 90.97291275 -67.76705383 90.09401886 -67.59146118 89.18849182 C-67.40916962 88.27164108 -67.22687805 87.35479034 -67.0390625 86.41015625 C-66.84782806 85.42615341 -66.65659363 84.44215057 -66.45956421 83.42832947 C-65.85232323 80.30553245 -65.23925708 77.18392391 -64.625 74.0625 C-61.8119716 59.73885741 -59.1859221 45.43413721 -57 31 C-67.395 32.485 -67.395 32.485 -78 34 C-76.73003012 25.65448367 -75.39780596 17.32509216 -74 9 C-73.25468018 8.90501221 -72.50936035 8.81002441 -71.74145508 8.7121582 C-68.09829106 8.24699708 -64.45536269 7.78001346 -60.8125 7.3125 C-60.13615509 7.22585083 -59.45981018 7.13920166 -58.76296997 7.04992676 C-50.14145163 5.94401232 -41.52508447 4.80610436 -32.9140625 3.62109375 C-32.08047714 3.50675491 -31.24689178 3.39241608 -30.38804626 3.27461243 C-26.29615965 2.71314199 -22.20491185 2.1475683 -18.11450195 1.57543945 C-16.60630632 1.36782854 -15.098088 1.16038239 -13.58984375 0.953125 C-12.90979279 0.85644028 -12.22974182 0.75975555 -11.52908325 0.66014099 C-7.65639214 0.1327931 -3.9070832 -0.09215353 0 0 Z " fill="#fff" transform="translate(444,270)"/>
<path d="M0 0 C-0.46569122 7.8187104 -1.22458462 15.36399015 -3 23 C-4.134375 22.95875 -5.26875 22.9175 -6.4375 22.875 C-17.74173059 22.89500749 -26.04336311 27.11932146 -34 35 C-34.495 35.99 -34.495 35.99 -35 37 C-35.66 37 -36.32 37 -37 37 C-37.27585938 37.84046875 -37.55171875 38.6809375 -37.8359375 39.546875 C-38.61633289 41.86187341 -39.4346747 44.16440132 -40.2890625 46.453125 C-44.04324057 56.87131294 -46.87410351 69.04430663 -42.97265625 79.84375 C-40.98359729 83.18101609 -39.25909868 84.82726755 -36 87 C-28.63620034 88.43059503 -23.23631353 85.59413708 -17 82 C-15.29179704 81.06226247 -13.58347105 80.12474901 -11.875 79.1875 C-10.5820996 78.46052313 -9.28994197 77.73221344 -8 77 C-8.41788911 83.20235409 -8.95200965 89.39689529 -9.75 95.5625 C-9.92789063 97.01849609 -9.92789063 97.01849609 -10.109375 98.50390625 C-11 101 -11 101 -13.265625 102.90234375 C-18.89439179 105.16189156 -24.15120038 101.80141533 -29.4375 99.625 C-37.20519726 96.49994547 -44.72404564 94.39706625 -53 93 C-56.5 91.5 -60 90.5 -65.02734375 89.16015625 C-66.33077791 88.79444451 -67.63416069 88.42854962 -68.9375 88.0625 C-69.59685547 87.88009766 -70.25621094 87.69769531 -70.93554688 87.50976562 C-75.88671875 86.11328125 -75.88671875 86.11328125 -77 85 C-78.41412066 64.35927722 -74.59901613 44.53957021 -61.625 28 C-60.11602089 26.30368165 -58.57471164 24.63548071 -57 23 C-56.25234375 22.21238281 -55.5046875 21.42476563 -54.734375 20.61328125 C-40.72155961 6.94846624 -19.52075752 -0.88730716 0 0 Z " fill="#fff" transform="translate(123,319)"/>
<path d="M0 0 C3.0625 0.1875 3.0625 0.1875 5.0625 2.1875 C4.70893526 6.7180622 2.62157291 10.67454157 0.75 14.75 C-4.82785165 26.54086257 -4.82785165 26.54086257 -6.9375 39.1875 C-6.35742188 38.37925781 -5.77734375 37.57101563 -5.1796875 36.73828125 C4.83494341 22.95176659 4.83494341 22.95176659 10.20703125 21.6796875 C12.14771415 21.41458546 14.1064089 21.28867713 16.0625 21.1875 C17.75 22.625 17.75 22.625 19.0625 25.1875 C18.48572678 28.34424807 17.27287384 31.22501242 16.0625 34.1875 C14.22728358 38.86900115 12.69176255 43.15339956 12.0625 48.1875 C13.48014994 47.25148754 14.89657568 46.3136208 16.3125 45.375 C17.10140625 44.85292969 17.8903125 44.33085938 18.703125 43.79296875 C19.48171875 43.26316406 20.2603125 42.73335937 21.0625 42.1875 C21.79597656 41.72085938 22.52945313 41.25421875 23.28515625 40.7734375 C25.51026025 38.78796009 25.7055646 37.52400215 26.25 34.625 C28.7826524 25.19637558 37.02981196 18.27013005 45.0625 13.1875 C49.43930651 10.78025642 53.16095553 10.72068624 58.0625 11.1875 C60.5625 12.8125 60.5625 12.8125 62.0625 15.1875 C62.69332964 18.81477042 62.30293329 20.69570464 60.6875 24 C55.68577998 30.74609212 48.65107709 36.62551484 41.0625 40.1875 C40.0725 40.1875 39.0825 40.1875 38.0625 40.1875 C39.0525 41.8375 40.0425 43.4875 41.0625 45.1875 C51.68759736 44.97499805 61.89137006 38.60767352 70.0625 32.1875 C70.75390625 34.4453125 70.75390625 34.4453125 71.0625 37.1875 C66.22104354 45.5011121 54.77464771 50.28345076 46.0625 53.1875 C35.07343862 54.21451508 35.07343862 54.21451508 30.875 52.0703125 C29.25 50.6875 29.25 50.6875 27.0625 48.1875 C22.34758006 50.33064543 18.32227882 53.49696842 14.1328125 56.5078125 C10.68856873 58.392068 8.92280183 58.76601935 5.0625 58.1875 C2.71484375 56.9765625 2.71484375 56.9765625 1.0625 55.1875 C-0.43161975 48.66984375 1.61857863 42.21002052 4.0625 36.1875 C0.60295038 40.84987316 -2.61372406 45.53861243 -5.453125 50.6015625 C-6.10112061 51.75023804 -6.10112061 51.75023804 -6.76220703 52.92211914 C-7.621348 54.46021699 -8.46641049 56.00627324 -9.29638672 57.56030273 C-12.28315351 62.89157912 -12.28315351 62.89157912 -15.5546875 64.37109375 C-17.9375 64.1875 -17.9375 64.1875 -19.56640625 62.921875 C-22.0287429 59.80712437 -21.27142362 55.94587264 -20.9375 52.1875 C-20.38489812 48.13157093 -19.6318868 44.13487609 -18.8125 40.125 C-18.58876709 39.02534912 -18.36503418 37.92569824 -18.13452148 36.79272461 C-10.4498327 0.6670106 -10.4498327 0.6670106 0 0 Z M43.0625 24.1875 C41.40370495 26.48268811 40.28828227 28.59449905 39.0625 31.1875 C39.3925 32.1775 39.7225 33.1675 40.0625 34.1875 C42.59923288 32.8321674 42.59923288 32.8321674 45.0625 31.1875 C45.0625 30.5275 45.0625 29.8675 45.0625 29.1875 C45.64 28.960625 46.2175 28.73375 46.8125 28.5 C49.6288661 26.85711977 51.14327114 24.79216773 53.0625 22.1875 C52.7325 21.5275 52.4025 20.8675 52.0625 20.1875 C47.25610545 20.1875 46.43144773 20.90277596 43.0625 24.1875 Z " fill="#fff" transform="translate(278.9375,16.8125)"/>
<path d="M0 0 C0.8125 2.5625 0.8125 2.5625 1 5 C-0.60135461 6.60135461 -2.389954 6.25855148 -4.609375 6.39453125 C-6.06887573 6.49411133 -6.06887573 6.49411133 -7.55786133 6.59570312 C-8.61126709 6.66724609 -9.66467285 6.73878906 -10.75 6.8125 C-19.20105821 7.44834818 -27.48637803 8.40702951 -35.8125 10 C-36.69454102 10.16604736 -37.57658203 10.33209473 -38.48535156 10.50317383 C-42.31068414 11.27209439 -44.69414493 11.79609662 -48 14 C-47.79117188 14.71671875 -47.58234375 15.4334375 -47.3671875 16.171875 C-46.91774538 19.63353559 -47.63156316 21.12004255 -49.125 24.25 C-56.48377587 40.96522497 -61.34088881 60.26793669 -61.53125 78.56640625 C-62 81 -62 81 -63.83984375 82.8515625 C-66.89878535 84.47783525 -68.72372664 83.90620327 -72 83 C-75 81 -75 81 -75.46875 78.91796875 C-75.71437791 57.45623008 -67.38793719 33.977911 -56 16 C-71.86410988 20.75185711 -71.86410988 20.75185711 -84 31 C-84.08388885 34.10388734 -83.6658774 36.97388391 -83 40 C-86.46196518 41.73098259 -90.21454927 41.47149742 -94 41 C-97.36212535 38.89867166 -97.87491411 37.42216489 -99 33.625 C-99 29.04983462 -97.78092689 27.58267681 -95 24 C-76.63919822 8.5056525 -23.0575041 -14.6755305 0 0 Z " fill="#fff" transform="translate(308,7)"/>
  </g>
  <!-- Bottom decorative line with diamonds -->
  <line x1="400" y1="620" x2="720" y2="620" stroke="#C8A84E" stroke-width="2"/>
  <polygon points="800,610 810,620 800,630 790,620" fill="#C8A84E"/>
  <line x1="880" y1="620" x2="1200" y2="620" stroke="#C8A84E" stroke-width="2"/>
  <!-- Tagline -->
  <text x="800" y="700" text-anchor="middle" fill="#C8A84E" font-family="Georgia, 'Times New Roman', serif" font-size="30" letter-spacing="14" opacity="0.85">ROCK &#x2022; N &#x2022; ROLL</text>
  <!-- Small stars flanking tagline -->
  <polygon points="530,701 534,691 544,691 536,685 539,675 530,681 521,675 524,685 516,691 526,691" fill="#C8A84E"/>
  <polygon points="1070,701 1074,691 1084,691 1076,685 1079,675 1070,681 1061,675 1064,685 1056,691 1066,691" fill="#C8A84E"/>
</svg>
